<?xml version="1.0" encoding="UTF-8" standalone="no"?>
<svg
   viewBox="0 0 36 216"
   version="1.1"
   id="svg28"
   sodipodi:docname="curved_conveyor_cropped.svg"
   inkscape:export-filename="D:\Programming\Java\FactoryGame\source\tile\textures\curved_conveyor.png"
   inkscape:export-xdpi="682.66669"
   inkscape:export-ydpi="682.66669"
   inkscape:version="1.1 (c68e22c387, 2021-05-23)"
   width="36"
   height="216"
   xmlns:inkscape="http://www.inkscape.org/namespaces/inkscape"
   xmlns:sodipodi="http://sodipodi.sourceforge.net/DTD/sodipodi-0.dtd"
   xmlns="http://www.w3.org/2000/svg"
   xmlns:svg="http://www.w3.org/2000/svg">
  <defs
     id="defs32">
    <inkscape:path-effect
       effect="skeletal"
       id="path-effect14012"
       is_visible="true"
       lpeversion="1"
       pattern="m 55.25,5.2638302 c -0.773759,0.44679 -1.250288,1.272525 -1.25,2.166015 v 6.4023438 c -3.99e-4,1.924731 2.082967,3.128092 3.75,2.166015 l 5.544922,-3.201171 c 1.668534,-0.962019 1.668534,-3.3700126 0,-4.3320318 L 57.75,5.2638302 c -0.773516,-0.44653 -1.726483,-0.44653 -2.5,0 z m 17.301516,0.4999829 c -0.774511,0.446293 -1.251839,1.272122 -1.251953,2.166015 v 6.4023439 c -3.99e-4,1.924731 2.082966,3.128091 3.749999,2.166015 l 5.546875,-3.201171 c 1.668534,-0.962019 1.668534,-3.3700127 0,-4.3320319 l -5.546875,-3.201171 c -0.77302,-0.445779 -1.725026,-0.445779 -2.498046,0 z m 18.098023,0 c -0.773759,0.4467897 -1.250288,1.2725249 -1.25,2.166015 v 6.4023439 c -3.99e-4,1.924731 2.082967,3.128092 3.75,2.166015 l 5.544922,-3.201171 c 1.668539,-0.962019 1.668539,-3.3700137 0,-4.3320319 l -5.544922,-3.201171 c -0.773517,-0.4465304 -1.726483,-0.4465304 -2.5,0 z M 55.25,5.2638302 C 54.476241,5.7106199 53.999712,6.5363551 54,7.4298452 v 6.4023438 c -3.99e-4,1.924731 2.082967,3.128092 3.75,2.166015 l 5.544922,-3.201171 c 1.668534,-0.962019 1.668534,-3.3700136 0,-4.3320318 L 57.75,5.2638302 c -0.773517,-0.4465304 -1.726483,-0.4465304 -2.5,0 z m 17.301516,0.4999829 c -0.774511,0.446293 -1.251839,1.2721219 -1.251953,2.166015 v 6.4023439 c -3.99e-4,1.924731 2.082966,3.128091 3.749999,2.166015 l 5.546875,-3.201171 c 1.668534,-0.962019 1.668534,-3.3700137 0,-4.3320319 l -5.546875,-3.201171 c -0.77302,-0.4457788 -1.725026,-0.4457788 -2.498046,0 z"
       copytype="repeated"
       prop_scale="1"
       scale_y_rel="false"
       spacing="0"
       normal_offset="0.5"
       tang_offset="24.7"
       prop_units="false"
       vertical_pattern="false"
       hide_knot="false"
       fuse_tolerance="0" />
    <inkscape:path-effect
       effect="skeletal"
       id="path-effect14006"
       is_visible="true"
       lpeversion="1"
       pattern="m 55.25,5.2638302 c -0.773759,0.44679 -1.250288,1.272525 -1.25,2.166015 v 6.4023438 c -3.99e-4,1.924731 2.082967,3.128092 3.75,2.166015 l 5.544922,-3.201171 c 1.668534,-0.962019 1.668534,-3.3700126 0,-4.3320318 L 57.75,5.2638302 c -0.773516,-0.44653 -1.726483,-0.44653 -2.5,0 z m 17.301516,0.4999829 c -0.774511,0.446293 -1.251839,1.272122 -1.251953,2.166015 v 6.4023439 c -3.99e-4,1.924731 2.082966,3.128091 3.749999,2.166015 l 5.546875,-3.201171 c 1.668534,-0.962019 1.668534,-3.3700127 0,-4.3320319 l -5.546875,-3.201171 c -0.77302,-0.445779 -1.725026,-0.445779 -2.498046,0 z m 18.098023,0 c -0.773759,0.4467897 -1.250288,1.2725249 -1.25,2.166015 v 6.4023439 c -3.99e-4,1.924731 2.082967,3.128092 3.75,2.166015 l 5.544922,-3.201171 c 1.668539,-0.962019 1.668539,-3.3700137 0,-4.3320319 l -5.544922,-3.201171 c -0.773517,-0.4465304 -1.726483,-0.4465304 -2.5,0 z M 55.25,5.2638302 C 54.476241,5.7106199 53.999712,6.5363551 54,7.4298452 v 6.4023438 c -3.99e-4,1.924731 2.082967,3.128092 3.75,2.166015 l 5.544922,-3.201171 c 1.668534,-0.962019 1.668534,-3.3700136 0,-4.3320318 L 57.75,5.2638302 c -0.773517,-0.4465304 -1.726483,-0.4465304 -2.5,0 z m 17.301516,0.4999829 c -0.774511,0.446293 -1.251839,1.2721219 -1.251953,2.166015 v 6.4023439 c -3.99e-4,1.924731 2.082966,3.128091 3.749999,2.166015 l 5.546875,-3.201171 c 1.668534,-0.962019 1.668534,-3.3700137 0,-4.3320319 l -5.546875,-3.201171 c -0.77302,-0.4457788 -1.725026,-0.4457788 -2.498046,0 z"
       copytype="repeated"
       prop_scale="1"
       scale_y_rel="false"
       spacing="0"
       normal_offset="0.5"
       tang_offset="21.7"
       prop_units="false"
       vertical_pattern="false"
       hide_knot="false"
       fuse_tolerance="0" />
    <inkscape:path-effect
       effect="skeletal"
       id="path-effect14000"
       is_visible="true"
       lpeversion="1"
       pattern="m 55.25,5.2638302 c -0.773759,0.44679 -1.250288,1.272525 -1.25,2.166015 v 6.4023438 c -3.99e-4,1.924731 2.082967,3.128092 3.75,2.166015 l 5.544922,-3.201171 c 1.668534,-0.962019 1.668534,-3.3700126 0,-4.3320318 L 57.75,5.2638302 c -0.773516,-0.44653 -1.726483,-0.44653 -2.5,0 z m 17.301516,0.4999829 c -0.774511,0.446293 -1.251839,1.272122 -1.251953,2.166015 v 6.4023439 c -3.99e-4,1.924731 2.082966,3.128091 3.749999,2.166015 l 5.546875,-3.201171 c 1.668534,-0.962019 1.668534,-3.3700127 0,-4.3320319 l -5.546875,-3.201171 c -0.77302,-0.445779 -1.725026,-0.445779 -2.498046,0 z m 18.098023,0 c -0.773759,0.4467897 -1.250288,1.2725249 -1.25,2.166015 v 6.4023439 c -3.99e-4,1.924731 2.082967,3.128092 3.75,2.166015 l 5.544922,-3.201171 c 1.668539,-0.962019 1.668539,-3.3700137 0,-4.3320319 l -5.544922,-3.201171 c -0.773517,-0.4465304 -1.726483,-0.4465304 -2.5,0 z M 55.25,5.2638302 C 54.476241,5.7106199 53.999712,6.5363551 54,7.4298452 v 6.4023438 c -3.99e-4,1.924731 2.082967,3.128092 3.75,2.166015 l 5.544922,-3.201171 c 1.668534,-0.962019 1.668534,-3.3700136 0,-4.3320318 L 57.75,5.2638302 c -0.773517,-0.4465304 -1.726483,-0.4465304 -2.5,0 z m 17.301516,0.4999829 c -0.774511,0.446293 -1.251839,1.2721219 -1.251953,2.166015 v 6.4023439 c -3.99e-4,1.924731 2.082966,3.128091 3.749999,2.166015 l 5.546875,-3.201171 c 1.668534,-0.962019 1.668534,-3.3700137 0,-4.3320319 l -5.546875,-3.201171 c -0.77302,-0.4457788 -1.725026,-0.4457788 -2.498046,0 z"
       copytype="repeated"
       prop_scale="1"
       scale_y_rel="false"
       spacing="0"
       normal_offset="0.5"
       tang_offset="36.7"
       prop_units="false"
       vertical_pattern="false"
       hide_knot="false"
       fuse_tolerance="0" />
    <inkscape:path-effect
       effect="skeletal"
       id="path-effect13994"
       is_visible="true"
       lpeversion="1"
       pattern="m 55.25,5.2638302 c -0.773759,0.44679 -1.250288,1.272525 -1.25,2.166015 v 6.4023438 c -3.99e-4,1.924731 2.082967,3.128092 3.75,2.166015 l 5.544922,-3.201171 c 1.668534,-0.962019 1.668534,-3.3700126 0,-4.3320318 L 57.75,5.2638302 c -0.773516,-0.44653 -1.726483,-0.44653 -2.5,0 z m 17.301516,0.4999829 c -0.774511,0.446293 -1.251839,1.272122 -1.251953,2.166015 v 6.4023439 c -3.99e-4,1.924731 2.082966,3.128091 3.749999,2.166015 l 5.546875,-3.201171 c 1.668534,-0.962019 1.668534,-3.3700127 0,-4.3320319 l -5.546875,-3.201171 c -0.77302,-0.445779 -1.725026,-0.445779 -2.498046,0 z m 18.098023,0 c -0.773759,0.4467897 -1.250288,1.2725249 -1.25,2.166015 v 6.4023439 c -3.99e-4,1.924731 2.082967,3.128092 3.75,2.166015 l 5.544922,-3.201171 c 1.668539,-0.962019 1.668539,-3.3700137 0,-4.3320319 l -5.544922,-3.201171 c -0.773517,-0.4465304 -1.726483,-0.4465304 -2.5,0 z M 55.25,5.2638302 C 54.476241,5.7106199 53.999712,6.5363551 54,7.4298452 v 6.4023438 c -3.99e-4,1.924731 2.082967,3.128092 3.75,2.166015 l 5.544922,-3.201171 c 1.668534,-0.962019 1.668534,-3.3700136 0,-4.3320318 L 57.75,5.2638302 c -0.773517,-0.4465304 -1.726483,-0.4465304 -2.5,0 z m 17.301516,0.4999829 c -0.774511,0.446293 -1.251839,1.2721219 -1.251953,2.166015 v 6.4023439 c -3.99e-4,1.924731 2.082966,3.128091 3.749999,2.166015 l 5.546875,-3.201171 c 1.668534,-0.962019 1.668534,-3.3700137 0,-4.3320319 l -5.546875,-3.201171 c -0.77302,-0.4457788 -1.725026,-0.4457788 -2.498046,0 z"
       copytype="repeated"
       prop_scale="1"
       scale_y_rel="false"
       spacing="0"
       normal_offset="0.5"
       tang_offset="30.7"
       prop_units="false"
       vertical_pattern="false"
       hide_knot="false"
       fuse_tolerance="0" />
    <inkscape:path-effect
       effect="skeletal"
       id="path-effect13988"
       is_visible="true"
       lpeversion="1"
       pattern="m 55.25,5.2638302 c -0.773759,0.44679 -1.250288,1.272525 -1.25,2.166015 v 6.4023438 c -3.99e-4,1.924731 2.082967,3.128092 3.75,2.166015 l 5.544922,-3.201171 c 1.668534,-0.962019 1.668534,-3.3700126 0,-4.3320318 L 57.75,5.2638302 c -0.773516,-0.44653 -1.726483,-0.44653 -2.5,0 z m 17.301516,0.4999829 c -0.774511,0.446293 -1.251839,1.272122 -1.251953,2.166015 v 6.4023439 c -3.99e-4,1.924731 2.082966,3.128091 3.749999,2.166015 l 5.546875,-3.201171 c 1.668534,-0.962019 1.668534,-3.3700127 0,-4.3320319 l -5.546875,-3.201171 c -0.77302,-0.445779 -1.725026,-0.445779 -2.498046,0 z m 18.098023,0 c -0.773759,0.4467897 -1.250288,1.2725249 -1.25,2.166015 v 6.4023439 c -3.99e-4,1.924731 2.082967,3.128092 3.75,2.166015 l 5.544922,-3.201171 c 1.668539,-0.962019 1.668539,-3.3700137 0,-4.3320319 l -5.544922,-3.201171 c -0.773517,-0.4465304 -1.726483,-0.4465304 -2.5,0 z M 55.25,5.2638302 C 54.476241,5.7106199 53.999712,6.5363551 54,7.4298452 v 6.4023438 c -3.99e-4,1.924731 2.082967,3.128092 3.75,2.166015 l 5.544922,-3.201171 c 1.668534,-0.962019 1.668534,-3.3700136 0,-4.3320318 L 57.75,5.2638302 c -0.773517,-0.4465304 -1.726483,-0.4465304 -2.5,0 z m 17.301516,0.4999829 c -0.774511,0.446293 -1.251839,1.2721219 -1.251953,2.166015 v 6.4023439 c -3.99e-4,1.924731 2.082966,3.128091 3.749999,2.166015 l 5.546875,-3.201171 c 1.668534,-0.962019 1.668534,-3.3700137 0,-4.3320319 l -5.546875,-3.201171 c -0.77302,-0.4457788 -1.725026,-0.4457788 -2.498046,0 z"
       copytype="repeated"
       prop_scale="1"
       scale_y_rel="false"
       spacing="0"
       normal_offset="0.5"
       tang_offset="33.7"
       prop_units="false"
       vertical_pattern="false"
       hide_knot="false"
       fuse_tolerance="0" />
    <inkscape:path-effect
       effect="skeletal"
       id="path-effect13982"
       is_visible="true"
       lpeversion="1"
       pattern="m 55.25,5.2638302 c -0.773759,0.44679 -1.250288,1.272525 -1.25,2.166015 v 6.4023438 c -3.99e-4,1.924731 2.082967,3.128092 3.75,2.166015 l 5.544922,-3.201171 c 1.668534,-0.962019 1.668534,-3.3700126 0,-4.3320318 L 57.75,5.2638302 c -0.773516,-0.44653 -1.726483,-0.44653 -2.5,0 z m 17.301516,0.4999829 c -0.774511,0.446293 -1.251839,1.272122 -1.251953,2.166015 v 6.4023439 c -3.99e-4,1.924731 2.082966,3.128091 3.749999,2.166015 l 5.546875,-3.201171 c 1.668534,-0.962019 1.668534,-3.3700127 0,-4.3320319 l -5.546875,-3.201171 c -0.77302,-0.445779 -1.725026,-0.445779 -2.498046,0 z m 18.098023,0 c -0.773759,0.4467897 -1.250288,1.2725249 -1.25,2.166015 v 6.4023439 c -3.99e-4,1.924731 2.082967,3.128092 3.75,2.166015 l 5.544922,-3.201171 c 1.668539,-0.962019 1.668539,-3.3700137 0,-4.3320319 l -5.544922,-3.201171 c -0.773517,-0.4465304 -1.726483,-0.4465304 -2.5,0 z M 55.25,5.2638302 C 54.476241,5.7106199 53.999712,6.5363551 54,7.4298452 v 6.4023438 c -3.99e-4,1.924731 2.082967,3.128092 3.75,2.166015 l 5.544922,-3.201171 c 1.668534,-0.962019 1.668534,-3.3700136 0,-4.3320318 L 57.75,5.2638302 c -0.773517,-0.4465304 -1.726483,-0.4465304 -2.5,0 z m 17.301516,0.4999829 c -0.774511,0.446293 -1.251839,1.2721219 -1.251953,2.166015 v 6.4023439 c -3.99e-4,1.924731 2.082966,3.128091 3.749999,2.166015 l 5.546875,-3.201171 c 1.668534,-0.962019 1.668534,-3.3700137 0,-4.3320319 l -5.546875,-3.201171 c -0.77302,-0.4457788 -1.725026,-0.4457788 -2.498046,0 z"
       copytype="repeated"
       prop_scale="1"
       scale_y_rel="false"
       spacing="0"
       normal_offset="0.5"
       tang_offset="27.7"
       prop_units="false"
       vertical_pattern="false"
       hide_knot="false"
       fuse_tolerance="0" />
    <inkscape:path-effect
       effect="skeletal"
       id="path-effect11579"
       is_visible="true"
       lpeversion="1"
       pattern="m 55.25,5.2638302 c -0.773759,0.44679 -1.250288,1.272525 -1.25,2.166015 v 6.4023438 c -3.99e-4,1.924731 2.082967,3.128092 3.75,2.166015 l 5.544922,-3.201171 c 1.668534,-0.962019 1.668534,-3.3700126 0,-4.3320318 L 57.75,5.2638302 c -0.773516,-0.44653 -1.726483,-0.44653 -2.5,0 z m 17.301516,0.4999829 c -0.774511,0.446293 -1.251839,1.272122 -1.251953,2.166015 v 6.4023439 c -3.99e-4,1.924731 2.082966,3.128091 3.749999,2.166015 l 5.546875,-3.201171 c 1.668534,-0.962019 1.668534,-3.3700127 0,-4.3320319 l -5.546875,-3.201171 c -0.77302,-0.445779 -1.725026,-0.445779 -2.498046,0 z m 18.098023,0 c -0.773759,0.4467897 -1.250288,1.2725249 -1.25,2.166015 v 6.4023439 c -3.99e-4,1.924731 2.082967,3.128092 3.75,2.166015 l 5.544922,-3.201171 c 1.668539,-0.962019 1.668539,-3.3700137 0,-4.3320319 l -5.544922,-3.201171 c -0.773517,-0.4465304 -1.726483,-0.4465304 -2.5,0 z M 55.25,5.2638302 C 54.476241,5.7106199 53.999712,6.5363551 54,7.4298452 v 6.4023438 c -3.99e-4,1.924731 2.082967,3.128092 3.75,2.166015 l 5.544922,-3.201171 c 1.668534,-0.962019 1.668534,-3.3700136 0,-4.3320318 L 57.75,5.2638302 c -0.773517,-0.4465304 -1.726483,-0.4465304 -2.5,0 z m 17.301516,0.4999829 c -0.774511,0.446293 -1.251839,1.2721219 -1.251953,2.166015 v 6.4023439 c -3.99e-4,1.924731 2.082966,3.128091 3.749999,2.166015 l 5.546875,-3.201171 c 1.668534,-0.962019 1.668534,-3.3700137 0,-4.3320319 l -5.546875,-3.201171 c -0.77302,-0.4457788 -1.725026,-0.4457788 -2.498046,0 z"
       copytype="repeated"
       prop_scale="1"
       scale_y_rel="false"
       spacing="0"
       normal_offset="0.5"
       tang_offset="24.7"
       prop_units="false"
       vertical_pattern="false"
       hide_knot="false"
       fuse_tolerance="0" />
    <inkscape:path-effect
       effect="skeletal"
       id="path-effect8912"
       is_visible="true"
       lpeversion="1"
       pattern="m -4.0234375,12.632813 a 2.50025,2.50025 0 0 0 -1.25,2.166015 v 6.402344 a 2.50025,2.50025 0 0 0 3.75,2.166015 l 5.5449219,-3.201171 a 2.50025,2.50025 0 0 0 0,-4.332032 l -5.5449219,-3.201171 a 2.50025,2.50025 0 0 0 -2.5,0 z"
       copytype="repeated"
       prop_scale="1"
       scale_y_rel="false"
       spacing="6"
       normal_offset="1"
       tang_offset="0"
       prop_units="false"
       vertical_pattern="false"
       hide_knot="false"
       fuse_tolerance="0" />
    <inkscape:path-effect
       effect="skeletal"
       id="path-effect3744"
       is_visible="true"
       lpeversion="1"
       pattern="M 0,6 H 36 V 30 H 0 Z"
       copytype="single_stretched"
       prop_scale="1"
       scale_y_rel="false"
       spacing="0"
       normal_offset="0"
       tang_offset="0"
       prop_units="false"
       vertical_pattern="false"
       hide_knot="false"
       fuse_tolerance="0" />
    <inkscape:path-effect
       effect="skeletal"
       id="path-effect1412"
       is_visible="true"
       lpeversion="1"
       pattern="m -57.920313,6 h 36 v 24 h -36 z"
       copytype="single_stretched"
       prop_scale="1"
       scale_y_rel="false"
       spacing="0"
       normal_offset="0"
       tang_offset="0"
       prop_units="false"
       vertical_pattern="false"
       hide_knot="false"
       fuse_tolerance="0" />
    <inkscape:path-effect
       effect="skeletal"
       id="path-effect1337"
       is_visible="true"
       lpeversion="1"
       pattern="M 0,0 H 1"
       copytype="single_stretched"
       prop_scale="1"
       scale_y_rel="false"
       spacing="0"
       normal_offset="0"
       tang_offset="0"
       prop_units="false"
       vertical_pattern="false"
       hide_knot="false"
       fuse_tolerance="0" />
  </defs>
  <sodipodi:namedview
     id="namedview30"
     pagecolor="#505050"
     bordercolor="#ffffff"
     borderopacity="1"
     inkscape:pageshadow="0"
     inkscape:pageopacity="0"
     inkscape:pagecheckerboard="1"
     showgrid="false"
     inkscape:zoom="2.8284271"
     inkscape:cx="-16.086679"
     inkscape:cy="95.989746"
     inkscape:window-width="1920"
     inkscape:window-height="1001"
     inkscape:window-x="-9"
     inkscape:window-y="-9"
     inkscape:window-maximized="1"
     inkscape:current-layer="svg28" />
  <path
     id="path2147"
     style="fill:#99aab5;stroke:none;stroke-width:1;stroke-linecap:round;stroke-linejoin:round;paint-order:stroke fill markers;stroke-opacity:1;stroke-miterlimit:4;stroke-dasharray:none;fill-opacity:1"
     d="M 5.6875 0 C 5.1549022 0.99483112 4.2700388 2.0527322 3.1835938 3.1835938 C 2.0527328 4.270038 0.99483076 5.1549024 0 5.6875 L 0 30 C 5.2096262 29.695302 9.1378543 28.375462 11.677734 26.658203 C 14.984169 24.771319 17.80625 22.547475 20.154297 20.154297 C 22.547476 17.80625 24.771319 14.98417 26.658203 11.677734 C 28.375462 9.1378538 29.695302 5.2096262 30 0 L 5.6875 0 z " />
  <path
     id="path5483"
     style="fill:#99aab5;fill-opacity:1;stroke:none;stroke-width:1;stroke-linecap:round;stroke-linejoin:round;stroke-miterlimit:4;stroke-dasharray:none;stroke-opacity:1;paint-order:stroke fill markers"
     d="M 5.6875,36 C 5.1549022,36.994831 4.2700388,38.052732 3.1835938,39.183594 2.0527328,40.270038 0.99483076,41.154902 0,41.6875 V 66 c 5.2096262,-0.304698 9.1378543,-1.624538 11.677734,-3.341797 3.306435,-1.886884 6.128516,-4.110728 8.476563,-6.503906 2.393179,-2.348047 4.617022,-5.170127 6.503906,-8.476563 C 28.375462,45.137854 29.695302,41.209626 30,36 Z" />
  <path
     id="path5485"
     style="fill:#99aab5;fill-opacity:1;stroke:none;stroke-width:1;stroke-linecap:round;stroke-linejoin:round;stroke-miterlimit:4;stroke-dasharray:none;stroke-opacity:1;paint-order:stroke fill markers"
     d="M 5.6875,72 C 5.1549022,72.994831 4.2700388,74.052732 3.1835938,75.183594 2.0527328,76.270038 0.99483076,77.154902 0,77.6875 V 102 c 5.2096262,-0.3047 9.1378543,-1.62454 11.677734,-3.341797 3.306435,-1.886884 6.128516,-4.110728 8.476563,-6.503906 2.393179,-2.348047 4.617022,-5.170127 6.503906,-8.476563 C 28.375462,81.137854 29.695302,77.209626 30,72 Z" />
  <path
     id="path5487"
     style="fill:#99aab5;fill-opacity:1;stroke:none;stroke-width:1;stroke-linecap:round;stroke-linejoin:round;stroke-miterlimit:4;stroke-dasharray:none;stroke-opacity:1;paint-order:stroke fill markers"
     d="m 5.6875,108 c -0.5325978,0.99483 -1.4174612,2.05273 -2.5039062,3.18359 C 2.0527328,112.27004 0.99483076,113.1549 0,113.6875 V 138 c 5.2096262,-0.3047 9.1378543,-1.62454 11.677734,-3.3418 3.306435,-1.88688 6.128516,-4.11072 8.476563,-6.5039 2.393179,-2.34805 4.617022,-5.17013 6.503906,-8.47657 C 28.375462,117.13785 29.695302,113.20963 30,108 Z" />
  <path
     id="path5489"
     style="fill:#99aab5;fill-opacity:1;stroke:none;stroke-width:1;stroke-linecap:round;stroke-linejoin:round;stroke-miterlimit:4;stroke-dasharray:none;stroke-opacity:1;paint-order:stroke fill markers"
     d="m 5.6875,144 c -0.5325978,0.99483 -1.4174612,2.05273 -2.5039062,3.18359 C 2.0527328,148.27004 0.99483076,149.1549 0,149.6875 V 174 c 5.2096262,-0.3047 9.1378543,-1.62454 11.677734,-3.3418 3.306435,-1.88688 6.128516,-4.11072 8.476563,-6.5039 2.393179,-2.34805 4.617022,-5.17013 6.503906,-8.47657 C 28.375462,153.13785 29.695302,149.20963 30,144 Z" />
  <path
     id="path5491"
     style="fill:#99aab5;fill-opacity:1;stroke:none;stroke-width:1;stroke-linecap:round;stroke-linejoin:round;stroke-miterlimit:4;stroke-dasharray:none;stroke-opacity:1;paint-order:stroke fill markers"
     d="m 5.6875,180 c -0.5325978,0.99483 -1.4174612,2.05273 -2.5039062,3.18359 C 2.0527328,184.27004 0.99483076,185.1549 0,185.6875 V 210 c 5.2096262,-0.3047 9.1378543,-1.62454 11.677734,-3.3418 3.306435,-1.88688 6.128516,-4.11072 8.476563,-6.5039 2.393179,-2.34805 4.617022,-5.17013 6.503906,-8.47657 C 28.375462,189.13785 29.695302,185.20963 30,180 Z" />
  <path
     id="path10835"
     style="fill:#758c9c;stroke:none;stroke-linecap:round;stroke-linejoin:round;stroke-opacity:1;paint-order:stroke fill markers;fill-opacity:1"
     d="M 13.808594 0 L 14.097656 0.5 C 14.264374 0.7133361 14.425329 0.93554161 14.580078 1.1660156 C 14.734827 1.3964896 14.883397 1.634272 15.025391 1.8808594 C 15.309379 2.3740342 15.568624 2.8996906 15.796875 3.4511719 C 15.835522 3.5447072 15.878818 3.6370924 15.929688 3.7265625 C 15.980557 3.8160326 16.037757 3.9020493 16.099609 3.9863281 C 16.161461 4.0706069 16.229187 4.1525074 16.300781 4.2304688 C 16.372375 4.3084301 16.447247 4.3826071 16.527344 4.453125 C 16.927825 4.8057146 17.427229 5.0585777 17.947266 5.140625 C 18.467302 5.2226723 19.009551 5.1339421 19.494141 4.8046875 C 19.591059 4.7388366 19.685564 4.6638062 19.777344 4.578125 C 19.869124 4.4924438 19.957567 4.3957001 20.042969 4.2890625 C 20.714063 3.4520144 21.332488 2.5315825 21.880859 1.5292969 C 22.06365 1.1952017 22.237703 0.85211775 22.404297 0.5 L 22.693359 0 L 13.808594 0 z M 9.9707031 8.1699219 C 9.8309073 8.1653216 9.6955046 8.1738781 9.5683594 8.1933594 C 9.4412142 8.2128406 9.3217941 8.24474 9.2109375 8.2871094 C 8.9892242 8.3718481 8.8046529 8.5007912 8.6699219 8.6699219 C 8.6357602 8.7144022 8.6044181 8.7610379 8.5761719 8.8125 C 8.5479257 8.8639621 8.5220552 8.919797 8.5 8.9785156 C 8.4779448 9.0372343 8.4589479 9.0997656 8.4433594 9.1660156 C 8.4277708 9.2322657 8.4150963 9.3028969 8.40625 9.3769531 C 8.382388 9.576703 8.3530668 9.776292 8.3164062 9.9785156 C 8.2430851 10.382963 8.1435171 10.792799 8.0195312 11.203125 C 7.8955454 11.613451 7.7462104 12.024697 7.5722656 12.435547 C 7.3113485 13.051822 6.9943862 13.665182 6.6230469 14.267578 C 6.4661426 14.52186 6.3560552 14.814466 6.2929688 15.123047 C 6.27194 15.225907 6.2563389 15.331903 6.2460938 15.4375 C 6.2358486 15.543097 6.2297505 15.649175 6.2304688 15.755859 C 6.231187 15.862544 6.2381386 15.970048 6.25 16.076172 C 6.2618614 16.182296 6.2795501 16.28671 6.3027344 16.390625 C 6.3491029 16.598455 6.4189805 16.801132 6.5117188 16.990234 C 6.604457 17.179337 6.7207822 17.354531 6.8613281 17.511719 C 6.9316011 17.590312 7.0073493 17.66428 7.0898438 17.732422 C 7.4198216 18.004991 7.8481483 18.187155 8.3808594 18.226562 C 8.6623743 18.247499 8.9458147 18.263392 9.2324219 18.271484 C 10.092243 18.295761 10.975084 18.260828 11.871094 18.162109 C 12.169764 18.129203 12.469865 18.08841 12.771484 18.041016 C 13.374723 17.946227 13.98388 17.823174 14.595703 17.667969 C 14.901614 17.590366 15.208371 17.503479 15.515625 17.410156 C 15.735361 17.343346 15.947177 17.252132 16.150391 17.136719 C 16.251998 17.079012 16.351397 17.015857 16.447266 16.947266 C 16.543134 16.878674 16.635552 16.803241 16.724609 16.724609 C 17.081771 16.404991 17.372001 16.015619 17.564453 15.589844 C 17.628604 15.447919 17.680993 15.302791 17.722656 15.154297 C 17.795289 14.895717 17.828533 14.641638 17.826172 14.398438 C 17.82381 14.155237 17.786281 13.922051 17.716797 13.705078 C 17.577829 13.271132 17.313356 12.900676 16.953125 12.636719 L 11.791016 8.8554688 C 11.636997 8.7426086 11.482092 8.6445519 11.326172 8.5605469 C 10.858412 8.3085317 10.390091 8.1837226 9.9707031 8.1699219 z M -3.234375 12.046875 C -3.6641108 12.039278 -4.1066792 12.144246 -4.5234375 12.384766 L -10.068359 15.585938 C -11.736898 16.547956 -11.736898 18.955951 -10.068359 19.917969 L -4.5234375 23.119141 C -3.7499205 23.565671 -2.7969545 23.565671 -2.0234375 23.119141 C -1.2496785 22.672351 -0.7731495 21.846615 -0.7734375 20.953125 L -0.7734375 14.550781 C -0.77313825 13.107233 -1.9451675 12.069666 -3.234375 12.046875 z " />
  <path
     id="path13978"
     style="fill:#758c9c;fill-opacity:1;stroke:none;stroke-linecap:round;stroke-linejoin:round;stroke-opacity:1;paint-order:stroke fill markers"
     d="M 12.552734 36 C 12.547922 36.077146 12.544326 36.154438 12.546875 36.232422 C 12.549788 36.32154 12.557413 36.410431 12.570312 36.5 C 12.592907 36.599155 12.629844 36.699736 12.679688 36.800781 C 12.729531 36.901826 12.792086 37.004624 12.871094 37.107422 C 12.996649 37.270728 13.120192 37.439165 13.238281 37.613281 C 13.474459 37.961513 13.69459 38.33049 13.898438 38.71875 C 14.204208 39.30114 14.471525 39.925525 14.695312 40.585938 C 14.844504 41.026213 14.975336 41.483525 15.083984 41.953125 C 15.106828 42.052129 15.136277 42.14923 15.171875 42.246094 C 15.207473 42.342957 15.247614 42.437825 15.294922 42.53125 C 15.342229 42.624675 15.395152 42.717953 15.453125 42.806641 C 15.511098 42.895328 15.574985 42.979847 15.642578 43.0625 C 15.777764 43.227805 15.930257 43.380296 16.097656 43.513672 C 16.181356 43.58036 16.269189 43.64246 16.359375 43.699219 C 16.449561 43.755977 16.543044 43.807984 16.638672 43.853516 C 16.925555 43.990109 17.233728 44.071804 17.550781 44.083984 C 17.656466 44.088044 17.764146 44.084626 17.871094 44.072266 C 17.978041 44.059906 18.084241 44.039844 18.191406 44.009766 C 18.298572 43.979688 18.405379 43.939719 18.511719 43.890625 C 18.724397 43.792436 18.935567 43.654698 19.138672 43.472656 C 19.353045 43.280721 19.564882 43.083574 19.773438 42.878906 C 20.399105 42.264904 20.997319 41.592241 21.558594 40.865234 C 21.745685 40.622899 21.928822 40.375809 22.107422 40.121094 C 22.64322 39.356948 23.138608 38.536089 23.585938 37.662109 C 23.631388 37.573304 23.671876 37.48221 23.708984 37.388672 C 23.783202 37.201596 23.840634 37.005627 23.880859 36.804688 C 23.900972 36.704218 23.918229 36.602669 23.929688 36.5 C 23.949059 36.363732 23.956355 36.227144 23.953125 36.089844 C 23.952417 36.059756 23.945153 36.030053 23.943359 36 L 12.552734 36 z M 8.1601562 45.589844 C 8.0802096 45.592239 8.0032817 45.598803 7.9277344 45.611328 C 7.7010923 45.648903 7.4953183 45.732595 7.3222656 45.855469 C 7.149213 45.978342 7.0086263 46.140473 6.9101562 46.339844 C 6.8773329 46.406301 6.8491532 46.47843 6.8261719 46.552734 C 6.7061886 46.940664 6.5627143 47.32878 6.3945312 47.716797 C 6.2263482 48.104814 6.0340363 48.49225 5.8183594 48.875 C 5.3870056 49.6405 4.8612344 50.389258 4.2441406 51.101562 C 3.7235088 51.701986 3.4759724 52.624239 3.6191406 53.458984 C 3.6907247 53.876357 3.8595527 54.273192 4.140625 54.595703 C 4.2811612 54.756959 4.450087 54.899218 4.6484375 55.017578 C 4.846788 55.135938 5.0741913 55.230291 5.3339844 55.292969 C 6.4319997 55.558334 7.5905045 55.728946 8.7890625 55.794922 C 9.687981 55.844404 10.610228 55.835383 11.548828 55.759766 C 11.861695 55.73456 12.175983 55.702037 12.492188 55.662109 C 12.75962 55.628262 13.021652 55.55727 13.273438 55.455078 C 13.525223 55.352886 13.766741 55.218689 13.988281 55.058594 C 14.099051 54.978546 14.204216 54.893347 14.304688 54.800781 C 14.405159 54.708216 14.501495 54.609638 14.589844 54.505859 C 14.678192 54.402081 14.759584 54.29142 14.833984 54.177734 C 14.908385 54.064048 14.974575 53.946507 15.033203 53.824219 C 15.091242 53.70325 15.139113 53.582221 15.177734 53.460938 C 15.254977 53.218371 15.295021 52.976783 15.298828 52.742188 C 15.302635 52.507592 15.271015 52.27877 15.207031 52.064453 C 15.175039 51.957294 15.135772 51.853688 15.087891 51.753906 C 15.040009 51.654125 14.982987 51.559616 14.919922 51.46875 C 14.856857 51.377884 14.786528 51.291349 14.708984 51.210938 L 10.265625 46.603516 C 10.091325 46.422762 9.9124508 46.269127 9.7324219 46.138672 C 9.5523929 46.008216 9.3709435 45.901125 9.1914062 45.818359 C 9.011869 45.735594 8.8349348 45.676355 8.6621094 45.638672 C 8.5756967 45.61983 8.4898185 45.605716 8.40625 45.597656 C 8.3226815 45.589596 8.2401029 45.587448 8.1601562 45.589844 z M -6.234375 48.046875 C -6.6641108 48.039278 -7.1066793 48.144246 -7.5234375 48.384766 L -13.068359 51.585938 C -14.736898 52.547957 -14.736898 54.955951 -13.068359 55.917969 L -7.5234375 59.119141 C -6.7499205 59.565671 -5.7969545 59.565671 -5.0234375 59.119141 C -4.2496785 58.672351 -3.7731495 57.846615 -3.7734375 56.953125 L -3.7734375 50.550781 C -3.7731382 49.107233 -4.9451675 48.069666 -6.234375 48.046875 z " />
  <path
     id="path13984"
     style="fill:#758c9c;fill-opacity:1;stroke:none;stroke-linecap:round;stroke-linejoin:round;stroke-opacity:1;paint-order:stroke fill markers"
     d="m 22.913737,114.10321 c -0.191127,-1.06961 -0.913726,-1.79153 -1.792397,-1.94983 l -6.295727,-1.13672 c -1.970352,-0.35609 -3.246807,0.87532 -2.853964,2.10668 0.508087,1.59166 0.719895,3.41021 0.530303,5.31862 -0.16016,1.60236 1.326731,3.60952 3.343544,2.74912 2.123435,-0.90454 4.206848,-2.26296 6.07903,-4.05271 0.792944,-0.75807 1.182529,-1.95267 0.989211,-3.03516 z M 8.5760876,129.60875 c 0.7443691,-0.76293 0.9063781,-1.76315 0.5308638,-2.57411 l -2.6903912,-5.808 C 5.5699206,119.39813 3.8746833,119.06632 3.1453116,120.07857 2.4460605,121.04902 1.5612997,121.95821 0.5,122.7381 l -1.46959888,0.84813 c -1.66853402,0.96202 -1.66853402,3.37001 0,4.33203 L 0.5,128.76638 c 1.5384433,0.78166 3.2534145,1.38155 5.0904502,1.75789 1.0575581,0.21633 2.2340205,-0.14472 2.9856374,-0.91552 z m -19.5987886,1.51068 c 0.773759,-0.44679 1.2502881,-1.27253 1.2500001,-2.16602 v -6.40234 c 3.99e-4,-1.92473 -2.0829671,-3.12809 -3.7500001,-2.16601 -1.848307,1.06705 -3.696615,2.13411 -5.544922,3.20117 -1.668539,0.96202 -1.668539,3.37001 0,4.33203 1.848307,1.06705 3.696615,2.13411 5.544922,3.20117 0.773517,0.44653 1.726483,0.44653 2.5,0 z m 33.936438,-17.01622 c -0.191127,-1.06961 -0.913726,-1.79153 -1.792397,-1.94983 l -6.295727,-1.13672 c -1.970352,-0.35609 -3.246807,0.87532 -2.853964,2.10668 0.508087,1.59166 0.719895,3.41021 0.530303,5.31862 -0.16016,1.60236 1.326732,3.60952 3.343544,2.74912 2.123435,-0.90454 4.206848,-2.26296 6.07903,-4.05271 0.792945,-0.75807 1.182529,-1.95267 0.989211,-3.03516 z M 8.5760876,129.60875 c 0.7443691,-0.76293 0.9063782,-1.76315 0.5308638,-2.57411 l -2.6903912,-5.808 C 5.5699206,119.39813 3.8746833,119.06632 3.1453116,120.07857 2.4460605,121.04902 1.5612997,121.95821 0.5,122.7381 l -1.46959888,0.84813 c -1.66853402,0.96202 -1.66853402,3.37001 0,4.33203 L 0.5,128.76638 c 1.5384433,0.78166 3.2534145,1.38155 5.0904502,1.75789 1.057558,0.21633 2.2340204,-0.14472 2.9856374,-0.91552 z"
     sodipodi:nodetypes="csc"
     inkscape:path-effect="#path-effect13988"
     inkscape:original-d="m 18.5,77.948398 c 0,0 0,5.038136 0,30.552042 0,4.77389 -1.896423,9.35226 -5.272078,12.72792 C 9.852267,124.60401 5.273897,126.50044 0.5,126.50044 h -26.044232" />
  <path
     id="path13990"
     style="fill:#758c9c;fill-opacity:1;stroke:none;stroke-linecap:round;stroke-linejoin:round;stroke-opacity:1;paint-order:stroke fill markers"
     d="m 23.542302,74.306996 c -0.363912,-1.03079 -1.197121,-1.626053 -2.090468,-1.633395 l -6.401288,-0.05503 c -2.002999,-0.01755 -3.043188,1.381814 -2.457994,2.520236 0.760061,1.477995 1.2558,3.246667 1.382095,5.169009 0.105402,1.619148 1.913071,3.332264 3.75411,2.157686 1.942368,-1.237767 3.777004,-2.90689 5.332697,-4.984826 0.658716,-0.879897 0.849192,-2.130009 0.480848,-3.173685 z M 11.953787,91.986834 c 0.611793,-0.875022 0.610347,-1.889282 0.107745,-2.627708 L 8.4609748,84.070808 C 7.3307845,82.410263 5.6111518,82.340571 5.0469701,83.463056 4.3135766,84.922181 3.2143044,86.33568 1.7717408,87.532209 c -1.21276731,1.005016 -1.59429633,3.472414 0.3801466,4.312011 2.0820557,0.886327 4.4633219,1.432133 7.0066665,1.532236 1.0758511,0.04203 2.1773671,-0.505359 2.7952331,-1.389622 z m -19.9767211,3.132595 c 0.773759,-0.44679 1.250288,-1.272525 1.25,-2.166015 V 86.55107 c 3.99e-4,-1.924731 -2.082967,-3.128092 -3.7499999,-2.166015 l -5.544922,3.201171 c -1.668539,0.962019 -1.668539,3.370014 0,4.332032 l 5.544922,3.201171 c 0.7735169,0.44653 1.7264829,0.44653 2.4999999,0 z M 23.542302,74.306996 c -0.363912,-1.03079 -1.197121,-1.626053 -2.090468,-1.633395 l -6.401288,-0.05503 c -2.002999,-0.01755 -3.043188,1.381814 -2.457994,2.520236 0.760061,1.477995 1.2558,3.246667 1.382095,5.169009 0.105402,1.619148 1.913071,3.332264 3.75411,2.157686 1.942368,-1.237767 3.777004,-2.90689 5.332697,-4.984826 0.658717,-0.879898 0.849192,-2.130009 0.480848,-3.173685 z M 11.953787,91.986834 c 0.611793,-0.875022 0.610347,-1.889281 0.107745,-2.627708 L 8.4609748,84.070808 C 7.3307845,82.410263 5.6111518,82.340571 5.0469701,83.463056 4.3135766,84.922181 3.2143044,86.33568 1.7717408,87.532209 c -1.2127673,1.005016 -1.59429633,3.472415 0.3801466,4.312011 2.0820557,0.886327 4.4633219,1.432133 7.0066665,1.532236 1.0758501,0.04203 2.1773661,-0.505359 2.7952331,-1.389622 z"
     sodipodi:nodetypes="csc"
     inkscape:path-effect="#path-effect13994"
     inkscape:original-d="m 18.5,41.948398 c 0,0 0,5.038136 0,30.552042 0,4.77389 -1.896423,9.35226 -5.272078,12.72792 C 9.852267,88.60401 5.273897,90.50044 0.5,90.50044 h -26.044232" />
  <path
     id="path13996"
     style="fill:#758c9c;fill-opacity:1;stroke:none;stroke-linecap:round;stroke-linejoin:round;stroke-opacity:1;paint-order:stroke fill markers"
     d="m 21.67766,153.72717 c -0.01514,-1.08419 -0.611238,-1.91209 -1.452647,-2.21203 l -6.028353,-2.15149 c -1.891151,-0.6753 -3.347503,0.34968 -3.155982,1.62101 0.189978,1.25966 0.188066,2.61465 -0.05272,4.00373 -0.07244,0.42937 -0.169046,0.86269 -0.289539,1.29774 -0.431008,1.55254 0.687092,3.7834 2.822575,3.28221 0.529463,-0.12396 1.062015,-0.27385 1.595871,-0.45104 1.729334,-0.58018 3.451296,-1.43576 5.089355,-2.55666 0.907689,-0.62115 1.486647,-1.73659 1.471444,-2.83347 z m -16.701869,12.9316 c 0.8620571,-0.63143 1.184117,-1.59175 0.9450528,-2.45267 L 4.2076993,158.04015 C 3.667118,156.09326 2.0568127,155.506 1.1966408,156.36721 0.97647206,156.58765 0.74420332,156.80125 0.5,157.00676 l -4.4696009,2.57947 c -1.668534,0.96202 -1.668534,3.37001 0,4.33203 L 0.5,166.49772 c 0.44268563,0.20598 0.8973051,0.39834 1.3628537,0.57629 1.0148632,0.38759 2.2426294,0.22263 3.1129373,-0.41524 z m -18.998494,0.46066 c 0.773759,-0.44679 1.250288,-1.27253 1.25,-2.16602 v -6.40234 c 3.99e-4,-1.92473 -2.082967,-3.12809 -3.75,-2.16601 -1.848307,1.06705 -3.696615,2.13411 -5.544922,3.20117 -1.668539,0.96202 -1.668539,3.37001 0,4.33203 1.848307,1.06705 3.696615,2.13411 5.544922,3.20117 0.773517,0.44653 1.726483,0.44653 2.5,0 z M 21.67766,153.72717 c -0.01514,-1.08419 -0.611238,-1.91209 -1.452647,-2.21203 l -6.028353,-2.15149 c -1.891151,-0.6753 -3.347503,0.34968 -3.155982,1.62101 0.189978,1.25966 0.188066,2.61465 -0.05272,4.00373 -0.07244,0.42937 -0.169046,0.86269 -0.289539,1.29774 -0.431008,1.55254 0.687093,3.7834 2.822575,3.28221 0.529463,-0.12396 1.062015,-0.27385 1.595871,-0.45104 1.729334,-0.58018 3.451296,-1.43576 5.089355,-2.55666 0.90769,-0.62115 1.486648,-1.73659 1.471444,-2.83347 z m -16.701869,12.9316 c 0.8620571,-0.63143 1.184117,-1.59175 0.9450528,-2.45267 L 4.2076993,158.04015 C 3.667118,156.09326 2.0568127,155.506 1.1966408,156.36721 0.97647206,156.58765 0.74420332,156.80125 0.5,157.00676 l -4.4696009,2.57947 c -1.668534,0.96202 -1.668534,3.37001 0,4.33203 L 0.5,166.49772 c 0.44268563,0.20598 0.8973051,0.39834 1.3628537,0.57629 1.0148632,0.38759 2.2426293,0.22263 3.1129373,-0.41524 z"
     sodipodi:nodetypes="csc"
     inkscape:path-effect="#path-effect14000"
     inkscape:original-d="m 18.5,113.9484 c 0,0 0,5.03813 0,30.55204 0,4.77389 -1.896423,9.35226 -5.272078,12.72792 C 9.852267,160.60401 5.273897,162.50044 0.5,162.50044 h -26.044232" />
  <path
     id="path14002"
     style="fill:#758c9c;fill-opacity:1;stroke:none;stroke-linecap:round;stroke-linejoin:round;stroke-opacity:1;paint-order:stroke fill markers"
     d="M 15.541016 180 L 15.830078 180.5 C 15.915617 180.62463 15.999927 180.75176 16.082031 180.88086 C 16.189796 181.05053 16.320412 181.20885 16.470703 181.35352 C 16.545849 181.42585 16.627269 181.49587 16.710938 181.56055 C 16.961942 181.75457 17.246432 181.9113 17.548828 182.01953 C 18.355219 182.30814 19.278177 182.24734 19.955078 181.5957 C 20.039691 181.51425 20.121004 181.42263 20.197266 181.32227 C 20.273528 181.2219 20.343651 181.1124 20.410156 180.99219 C 20.499682 180.83056 20.588353 180.66625 20.673828 180.5 L 20.962891 180 L 15.541016 180 z M 11.445312 186.46289 C 11.351502 186.46489 11.260007 186.47247 11.171875 186.48438 C 10.466816 186.57958 9.9553065 186.98164 9.796875 187.53125 C 9.7770711 187.59995 9.7623062 187.67114 9.7539062 187.74414 C 9.7455063 187.81714 9.7424536 187.89208 9.7460938 187.96875 C 9.7728361 188.53204 9.7576311 189.10924 9.6953125 189.69531 C 9.6681951 189.96961 9.6295952 190.24667 9.5800781 190.52539 C 9.4315269 191.36156 9.182592 192.21494 8.8359375 193.06445 C 8.7984174 193.15628 8.7664905 193.25179 8.7402344 193.34961 C 8.6877221 193.54524 8.6583226 193.75134 8.6503906 193.96094 C 8.6424587 194.17053 8.6553918 194.38351 8.6914062 194.59375 C 8.7274208 194.80399 8.7859073 195.01141 8.8652344 195.20898 C 9.0238885 195.60413 9.2695553 195.96 9.5976562 196.22461 C 9.7617067 196.35691 9.9449293 196.46522 10.150391 196.54492 C 10.355852 196.62462 10.581887 196.67567 10.828125 196.68945 C 10.951244 196.69634 11.079696 196.69373 11.212891 196.68164 C 11.578726 196.64859 11.947421 196.60344 12.318359 196.54688 C 12.689297 196.49031 13.062638 196.42279 13.4375 196.3418 C 13.812362 196.2608 14.188798 196.16687 14.566406 196.06055 C 14.944015 195.95423 15.323949 195.83568 15.703125 195.70312 C 16.109566 195.55916 16.51395 195.39953 16.917969 195.22656 C 17.321987 195.05359 17.725236 194.86775 18.125 194.66602 C 18.366883 194.54387 18.591265 194.3878 18.794922 194.20703 C 18.89675 194.11665 18.993611 194.02024 19.083984 193.91797 C 19.174358 193.8157 19.258285 193.70801 19.335938 193.5957 C 19.41359 193.4834 19.485163 193.36659 19.548828 193.24609 C 19.676159 193.00511 19.774102 192.74899 19.837891 192.48633 C 19.869785 192.355 19.894093 192.22187 19.908203 192.08789 C 19.922214 191.95522 19.926202 191.82576 19.921875 191.69922 C 19.908893 191.31958 19.815028 190.96912 19.658203 190.66602 C 19.553653 190.46395 19.422325 190.2831 19.265625 190.12695 C 19.187275 190.04888 19.101339 189.97691 19.011719 189.91211 C 18.922098 189.8473 18.828229 189.79058 18.728516 189.74023 L 13.013672 186.85547 C 12.675698 186.68481 12.348837 186.57469 12.039062 186.51562 C 11.832546 186.47625 11.632933 186.4589 11.445312 186.46289 z M -0.24609375 192.04688 C -0.67218444 192.04136 -1.1104373 192.14642 -1.5234375 192.38477 L -7.0683594 195.58594 C -8.7368984 196.54796 -8.7368984 198.95595 -7.0683594 199.91797 L -1.5234375 203.11914 C -0.90285188 203.47739 -0.16625882 203.54862 0.5 203.33203 C 0.71048604 203.27794 0.9142603 203.20343 1.1054688 203.10938 C 2.0724634 202.63361 2.5554412 201.74189 2.4667969 200.85352 L 1.8320312 194.48828 C 1.7195405 193.35487 1.0758989 192.47694 0.5 192.17188 C 0.26153065 192.09343 0.009560665 192.05018 -0.24609375 192.04688 z " />
  <path
     sodipodi:type="star"
     style="opacity:0.5;fill:#758c9c;fill-opacity:1;stroke:#758c9c;stroke-width:5;stroke-linecap:round;stroke-linejoin:round;stroke-miterlimit:4;stroke-dasharray:none;stroke-opacity:1;paint-order:stroke fill markers"
     id="path5166"
     inkscape:flatsided="true"
     sodipodi:sides="3"
     sodipodi:cx="-0.92455053"
     sodipodi:cy="18"
     sodipodi:r1="3.6968989"
     sodipodi:r2="1.8484495"
     sodipodi:arg1="-2.0943951"
     sodipodi:arg2="-1.0471976"
     inkscape:rounded="0"
     inkscape:randomized="0"
     inkscape:transform-center-x="0.92422469"
     d="M -2.773,14.798392 2.7723484,18 -2.773,21.201608 Z"
     transform="matrix(-1,0,0,1,-7e-6,143.6875)" />
  <path
     sodipodi:type="star"
     style="opacity:0.5;fill:#758c9c;fill-opacity:1;stroke:#758c9c;stroke-width:5;stroke-linecap:round;stroke-linejoin:round;stroke-miterlimit:4;stroke-dasharray:none;stroke-opacity:1;paint-order:stroke fill markers"
     id="path5298"
     inkscape:flatsided="true"
     sodipodi:sides="3"
     sodipodi:cx="-3.9245505"
     sodipodi:cy="198.00043"
     sodipodi:r1="3.6968989"
     sodipodi:r2="1.8484495"
     sodipodi:arg1="-2.0943951"
     sodipodi:arg2="-1.0471976"
     inkscape:rounded="0"
     inkscape:randomized="0"
     inkscape:transform-center-x="0.92422469"
     d="m -5.773,194.79882 5.5453484,3.20161 -5.5453484,3.20161 z"
     transform="matrix(-1,0,0,1,-7.4951172e-6,-72.3125)" />
</svg>
