<?xml version="1.0" encoding="UTF-8" standalone="no"?>
<svg
   viewBox="0 0 36 216"
   version="1.1"
   id="svg28"
   sodipodi:docname="curved_conveyor.svg"
   inkscape:export-filename="D:\Programming\Java\FactoryGame\source\tile\textures\curved_conveyor.png"
   inkscape:export-xdpi="682.66669"
   inkscape:export-ydpi="682.66669"
   inkscape:version="1.1 (c68e22c387, 2021-05-23)"
   width="36"
   height="216"
   xmlns:inkscape="http://www.inkscape.org/namespaces/inkscape"
   xmlns:sodipodi="http://sodipodi.sourceforge.net/DTD/sodipodi-0.dtd"
   xmlns="http://www.w3.org/2000/svg"
   xmlns:svg="http://www.w3.org/2000/svg">
  <defs
     id="defs32">
    <inkscape:path-effect
       effect="skeletal"
       id="path-effect14012"
       is_visible="true"
       lpeversion="1"
       pattern="#path11629"
       copytype="repeated"
       prop_scale="1"
       scale_y_rel="false"
       spacing="0"
       normal_offset="0.5"
       tang_offset="24.7"
       prop_units="false"
       vertical_pattern="false"
       hide_knot="false"
       fuse_tolerance="0" />
    <inkscape:path-effect
       effect="skeletal"
       id="path-effect14006"
       is_visible="true"
       lpeversion="1"
       pattern="#path11629"
       copytype="repeated"
       prop_scale="1"
       scale_y_rel="false"
       spacing="0"
       normal_offset="0.5"
       tang_offset="21.7"
       prop_units="false"
       vertical_pattern="false"
       hide_knot="false"
       fuse_tolerance="0" />
    <inkscape:path-effect
       effect="skeletal"
       id="path-effect14000"
       is_visible="true"
       lpeversion="1"
       pattern="#path11629"
       copytype="repeated"
       prop_scale="1"
       scale_y_rel="false"
       spacing="0"
       normal_offset="0.5"
       tang_offset="36.7"
       prop_units="false"
       vertical_pattern="false"
       hide_knot="false"
       fuse_tolerance="0" />
    <inkscape:path-effect
       effect="skeletal"
       id="path-effect13994"
       is_visible="true"
       lpeversion="1"
       pattern="#path11629"
       copytype="repeated"
       prop_scale="1"
       scale_y_rel="false"
       spacing="0"
       normal_offset="0.5"
       tang_offset="30.7"
       prop_units="false"
       vertical_pattern="false"
       hide_knot="false"
       fuse_tolerance="0" />
    <inkscape:path-effect
       effect="skeletal"
       id="path-effect13988"
       is_visible="true"
       lpeversion="1"
       pattern="#path11629"
       copytype="repeated"
       prop_scale="1"
       scale_y_rel="false"
       spacing="0"
       normal_offset="0.5"
       tang_offset="33.7"
       prop_units="false"
       vertical_pattern="false"
       hide_knot="false"
       fuse_tolerance="0" />
    <inkscape:path-effect
       effect="skeletal"
       id="path-effect13982"
       is_visible="true"
       lpeversion="1"
       pattern="#path11629"
       copytype="repeated"
       prop_scale="1"
       scale_y_rel="false"
       spacing="0"
       normal_offset="0.5"
       tang_offset="27.7"
       prop_units="false"
       vertical_pattern="false"
       hide_knot="false"
       fuse_tolerance="0" />
    <inkscape:path-effect
       effect="skeletal"
       id="path-effect11579"
       is_visible="true"
       lpeversion="1"
       pattern="#path11629"
       copytype="repeated"
       prop_scale="1"
       scale_y_rel="false"
       spacing="0"
       normal_offset="0.5"
       tang_offset="24.7"
       prop_units="false"
       vertical_pattern="false"
       hide_knot="false"
       fuse_tolerance="0" />
    <inkscape:path-effect
       effect="skeletal"
       id="path-effect8912"
       is_visible="true"
       lpeversion="1"
       pattern="m -4.0234375,12.632813 a 2.50025,2.50025 0 0 0 -1.25,2.166015 v 6.402344 a 2.50025,2.50025 0 0 0 3.75,2.166015 l 5.5449219,-3.201171 a 2.50025,2.50025 0 0 0 0,-4.332032 l -5.5449219,-3.201171 a 2.50025,2.50025 0 0 0 -2.5,0 z"
       copytype="repeated"
       prop_scale="1"
       scale_y_rel="false"
       spacing="6"
       normal_offset="1"
       tang_offset="0"
       prop_units="false"
       vertical_pattern="false"
       hide_knot="false"
       fuse_tolerance="0" />
    <inkscape:path-effect
       effect="skeletal"
       id="path-effect3744"
       is_visible="true"
       lpeversion="1"
       pattern="M 0,6 H 36 V 30 H 0 Z"
       copytype="single_stretched"
       prop_scale="1"
       scale_y_rel="false"
       spacing="0"
       normal_offset="0"
       tang_offset="0"
       prop_units="false"
       vertical_pattern="false"
       hide_knot="false"
       fuse_tolerance="0" />
    <inkscape:path-effect
       effect="skeletal"
       id="path-effect1412"
       is_visible="true"
       lpeversion="1"
       pattern="m -57.920313,6 h 36 v 24 h -36 z"
       copytype="single_stretched"
       prop_scale="1"
       scale_y_rel="false"
       spacing="0"
       normal_offset="0"
       tang_offset="0"
       prop_units="false"
       vertical_pattern="false"
       hide_knot="false"
       fuse_tolerance="0" />
    <inkscape:path-effect
       effect="skeletal"
       id="path-effect1337"
       is_visible="true"
       lpeversion="1"
       pattern="M 0,0 H 1"
       copytype="single_stretched"
       prop_scale="1"
       scale_y_rel="false"
       spacing="0"
       normal_offset="0"
       tang_offset="0"
       prop_units="false"
       vertical_pattern="false"
       hide_knot="false"
       fuse_tolerance="0" />
  </defs>
  <sodipodi:namedview
     id="namedview30"
     pagecolor="#505050"
     bordercolor="#ffffff"
     borderopacity="1"
     inkscape:pageshadow="0"
     inkscape:pageopacity="0"
     inkscape:pagecheckerboard="1"
     showgrid="false"
     inkscape:zoom="11.313708"
     inkscape:cx="61.474096"
     inkscape:cy="15.070213"
     inkscape:window-width="1920"
     inkscape:window-height="1001"
     inkscape:window-x="-9"
     inkscape:window-y="-9"
     inkscape:window-maximized="1"
     inkscape:current-layer="svg28" />
  <path
     id="path2147"
     style="fill:#99aab5;stroke:none;stroke-width:1;stroke-linecap:round;stroke-linejoin:round;paint-order:stroke fill markers;stroke-opacity:1;stroke-miterlimit:4;stroke-dasharray:none;fill-opacity:1"
     d="M 5.6875 0 C 5.1549022 0.99483112 4.2700388 2.0527322 3.1835938 3.1835938 C 2.0527328 4.270038 0.99483076 5.1549024 0 5.6875 L 0 30 C 5.2096262 29.695302 9.1378543 28.375462 11.677734 26.658203 C 14.984169 24.771319 17.80625 22.547475 20.154297 20.154297 C 22.547476 17.80625 24.771319 14.98417 26.658203 11.677734 C 28.375462 9.1378538 29.695302 5.2096262 30 0 L 5.6875 0 z " />
  <path
     id="path5483"
     style="fill:#99aab5;fill-opacity:1;stroke:none;stroke-width:1;stroke-linecap:round;stroke-linejoin:round;stroke-miterlimit:4;stroke-dasharray:none;stroke-opacity:1;paint-order:stroke fill markers"
     d="M 5.6875,36 C 5.1549022,36.994831 4.2700388,38.052732 3.1835938,39.183594 2.0527328,40.270038 0.99483076,41.154902 0,41.6875 V 66 c 5.2096262,-0.304698 9.1378543,-1.624538 11.677734,-3.341797 3.306435,-1.886884 6.128516,-4.110728 8.476563,-6.503906 2.393179,-2.348047 4.617022,-5.170127 6.503906,-8.476563 C 28.375462,45.137854 29.695302,41.209626 30,36 Z" />
  <path
     id="path5485"
     style="fill:#99aab5;fill-opacity:1;stroke:none;stroke-width:1;stroke-linecap:round;stroke-linejoin:round;stroke-miterlimit:4;stroke-dasharray:none;stroke-opacity:1;paint-order:stroke fill markers"
     d="M 5.6875,72 C 5.1549022,72.994831 4.2700388,74.052732 3.1835938,75.183594 2.0527328,76.270038 0.99483076,77.154902 0,77.6875 V 102 c 5.2096262,-0.3047 9.1378543,-1.62454 11.677734,-3.341797 3.306435,-1.886884 6.128516,-4.110728 8.476563,-6.503906 2.393179,-2.348047 4.617022,-5.170127 6.503906,-8.476563 C 28.375462,81.137854 29.695302,77.209626 30,72 Z" />
  <path
     id="path5487"
     style="fill:#99aab5;fill-opacity:1;stroke:none;stroke-width:1;stroke-linecap:round;stroke-linejoin:round;stroke-miterlimit:4;stroke-dasharray:none;stroke-opacity:1;paint-order:stroke fill markers"
     d="m 5.6875,108 c -0.5325978,0.99483 -1.4174612,2.05273 -2.5039062,3.18359 C 2.0527328,112.27004 0.99483076,113.1549 0,113.6875 V 138 c 5.2096262,-0.3047 9.1378543,-1.62454 11.677734,-3.3418 3.306435,-1.88688 6.128516,-4.11072 8.476563,-6.5039 2.393179,-2.34805 4.617022,-5.17013 6.503906,-8.47657 C 28.375462,117.13785 29.695302,113.20963 30,108 Z" />
  <path
     id="path5489"
     style="fill:#99aab5;fill-opacity:1;stroke:none;stroke-width:1;stroke-linecap:round;stroke-linejoin:round;stroke-miterlimit:4;stroke-dasharray:none;stroke-opacity:1;paint-order:stroke fill markers"
     d="m 5.6875,144 c -0.5325978,0.99483 -1.4174612,2.05273 -2.5039062,3.18359 C 2.0527328,148.27004 0.99483076,149.1549 0,149.6875 V 174 c 5.2096262,-0.3047 9.1378543,-1.62454 11.677734,-3.3418 3.306435,-1.88688 6.128516,-4.11072 8.476563,-6.5039 2.393179,-2.34805 4.617022,-5.17013 6.503906,-8.47657 C 28.375462,153.13785 29.695302,149.20963 30,144 Z" />
  <path
     id="path5491"
     style="fill:#99aab5;fill-opacity:1;stroke:none;stroke-width:1;stroke-linecap:round;stroke-linejoin:round;stroke-miterlimit:4;stroke-dasharray:none;stroke-opacity:1;paint-order:stroke fill markers"
     d="m 5.6875,180 c -0.5325978,0.99483 -1.4174612,2.05273 -2.5039062,3.18359 C 2.0527328,184.27004 0.99483076,185.1549 0,185.6875 V 210 c 5.2096262,-0.3047 9.1378543,-1.62454 11.677734,-3.3418 3.306435,-1.88688 6.128516,-4.11072 8.476563,-6.5039 2.393179,-2.34805 4.617022,-5.17013 6.503906,-8.47657 C 28.375462,189.13785 29.695302,185.20963 30,180 Z" />
  <path
     id="path10835"
     style="fill:#758c9c;stroke:none;stroke-linecap:round;stroke-linejoin:round;stroke-opacity:1;paint-order:stroke fill markers;fill-opacity:1"
     d="m 23.668972,-4.102436 c -0.44679,-0.773759 -1.272525,-1.250288 -2.166015,-1.25 l -6.402344,-1e-7 C 13.175882,-5.352835 11.972521,-3.269469 12.934598,-1.602436 L 14.148367,0.5 c 0.666822,0.8566858 1.24076,1.8544581 1.696658,2.9605323 0.61742,1.5005009 2.879412,2.5498412 4.246959,0.8386475 C 20.987381,3.1800039 21.788777,1.9118124 22.455202,0.5 l 1.21377,-2.102436 c 0.44653,-0.773516 0.44653,-1.726483 0,-2.5 z M 19.830954,12.118296 C 19.94503,11.059028 19.453396,10.174324 18.656841,9.7692838 L 12.951246,6.8690828 C 11.15058,5.9534219 9.6288662,6.741396 9.6860768,7.9636751 9.7116606,8.510326 9.6972281,9.070447 9.6386339,9.6386339 9.5326812,10.747737 9.2417121,11.899855 8.7722121,13.045793 c -0.6012263,1.465598 0.2396752,3.809315 2.3669119,3.624797 1.482066,-0.127965 3.011611,-0.4453 4.549263,-0.982203 0.790491,-0.279659 1.578163,-0.614459 2.356263,-1.003509 0.967644,-0.484173 1.671421,-1.496859 1.786304,-2.566582 z M 4.8644739,22.731746 C 5.7312162,22.104242 6.0588465,21.145713 5.824178,20.284016 L 4.1449132,14.108874 C 3.6151821,12.159643 2.0028623,11.563927 1.1342969,12.420301 0.93276202,12.619075 0.72128863,12.812139 0.5,12.998558 l -4.5680851,2.637228 c -1.668539,0.962019 -1.668539,3.370014 0,4.332032 L 0.5,22.605045 c 0.40345615,0.186816 0.8167084,0.362376 1.2390077,0.526107 1.0159664,0.393871 2.2488965,0.235077 3.1254662,-0.399406 z M 23.668972,-4.102436 c -0.44679,-0.773759 -1.272525,-1.250288 -2.166015,-1.25 l -6.402344,-1e-7 C 13.175882,-5.352835 11.972521,-3.269469 12.934598,-1.602436 L 14.148367,0.5 c 0.666822,0.8566858 1.24076,1.8544581 1.696658,2.9605323 0.61742,1.5005008 2.879413,2.5498415 4.246959,0.8386475 C 20.987381,3.1800039 21.788777,1.9118124 22.455202,0.5 l 1.21377,-2.102436 c 0.44653,-0.773517 0.44653,-1.726483 0,-2.5 z M 19.830954,12.118296 C 19.94503,11.059028 19.453396,10.174324 18.656841,9.7692838 L 12.951246,6.8690828 C 11.15058,5.9534219 9.6288662,6.741396 9.6860768,7.9636751 9.7116606,8.510326 9.6972281,9.070447 9.6386339,9.6386339 9.5326812,10.747737 9.2417121,11.899855 8.7722121,13.045793 c -0.6012263,1.465598 0.2396757,3.809316 2.3669119,3.624797 1.482066,-0.127965 3.011611,-0.4453 4.549263,-0.982203 0.790491,-0.279659 1.578163,-0.614459 2.356263,-1.003509 0.967644,-0.484173 1.671421,-1.496859 1.786304,-2.566582 z"
     sodipodi:nodetypes="csc"
     inkscape:path-effect="#path-effect11579"
     inkscape:original-d="m 18.5,-30.052038 c 0,0 0,5.038136 0,30.552038 0,4.7738968 -1.896423,9.352267 -5.272078,12.727922 C 9.852267,16.603577 5.273897,18.5 0.5,18.5 h -26.044232" />
  <path
     id="path11629"
     style="color:#000000;fill:#758c9c;stroke-linecap:round;stroke-linejoin:round;-inkscape-stroke:none;paint-order:stroke fill markers"
     d="m 55.249539,5.2638302 c -0.773759,0.44679 -1.250288,1.272525 -1.25,2.166015 v 6.4023438 c -3.99e-4,1.924731 2.082967,3.128092 3.75,2.166015 l 5.544922,-3.201171 c 1.668534,-0.962019 1.668534,-3.3700126 0,-4.3320318 l -5.544922,-3.201171 c -0.773516,-0.44653 -1.726483,-0.44653 -2.5,0 z M 69.603516,5.863813 c -0.774511,0.446293 -1.251839,1.272122 -1.251953,2.166015 v 6.402344 c -3.99e-4,1.924731 2.082966,3.128091 3.749999,2.166015 l 5.546875,-3.201171 c 1.668534,-0.962019 1.668534,-3.370013 0,-4.3320319 L 72.101562,5.863813 c -0.77302,-0.445779 -1.725026,-0.445779 -2.498046,0 z m 15.046023,-0.1 c -0.773759,0.4467897 -1.250288,1.2725249 -1.25,2.166015 v 6.402344 c -3.99e-4,1.924731 2.082967,3.128092 3.75,2.166015 l 5.544922,-3.201171 c 1.668539,-0.962019 1.668539,-3.3700138 0,-4.332032 L 87.149539,5.763813 c -0.773517,-0.4465304 -1.726483,-0.4465304 -2.5,0 z m -29.4,-0.4999828 c -0.773759,0.4467897 -1.250288,1.2725249 -1.25,2.166015 v 6.4023438 c -3.99e-4,1.924731 2.082967,3.128092 3.75,2.166015 l 5.544922,-3.201171 c 1.668534,-0.962019 1.668534,-3.3700136 0,-4.3320318 l -5.544922,-3.201171 c -0.773517,-0.4465304 -1.726483,-0.4465304 -2.5,0 z M 69.603516,5.863813 c -0.774511,0.446293 -1.251839,1.2721219 -1.251953,2.166015 v 6.402344 c -3.99e-4,1.924731 2.082966,3.128091 3.749999,2.166015 l 5.546875,-3.201171 c 1.668534,-0.962019 1.668534,-3.370014 0,-4.3320319 L 72.101562,5.863813 c -0.77302,-0.4457788 -1.725026,-0.4457788 -2.498046,0 z"
     sodipodi:nodetypes="cccccccccccccccccccccccccccccccccccccccc" />
  <rect
     style="opacity:0.5;fill:#99aab5;fill-opacity:1;stroke:none;stroke-width:1.01465;stroke-linecap:round;stroke-linejoin:round;paint-order:stroke fill markers"
     id="rect938"
     width="36"
     height="24"
     x="0"
     y="5.6875"
     transform="scale(-1,1)" />
  <path
     sodipodi:type="star"
     style="opacity:0.5;fill:#758c9c;fill-opacity:1;stroke:#758c9c;stroke-width:5;stroke-linecap:round;stroke-linejoin:round;stroke-miterlimit:4;stroke-dasharray:none;stroke-opacity:1;paint-order:stroke fill markers"
     id="path4010"
     inkscape:flatsided="true"
     sodipodi:sides="3"
     sodipodi:cx="17.075899"
     sodipodi:cy="18"
     sodipodi:r1="3.6968989"
     sodipodi:r2="1.8484495"
     sodipodi:arg1="-2.0943951"
     sodipodi:arg2="-1.0471976"
     inkscape:rounded="0"
     inkscape:randomized="0"
     inkscape:transform-center-x="0.92422469"
     d="M 15.22745,14.798392 20.772798,18 15.22745,21.201608 Z"
     transform="matrix(-1,0,0,1,-1.1760254e-6,-0.31250846)"
     inkscape:transform-center-y="-9.0926513e-06" />
  <rect
     style="opacity:0.5;fill:#99aab5;fill-opacity:1;stroke:none;stroke-width:1.01465;stroke-linecap:round;stroke-linejoin:round;paint-order:stroke fill markers"
     id="rect5019"
     width="36"
     height="24"
     x="0"
     y="41.6875"
     transform="scale(-1,1)" />
  <rect
     style="opacity:0.5;fill:#99aab5;fill-opacity:1;stroke:none;stroke-width:1.01465;stroke-linecap:round;stroke-linejoin:round;paint-order:stroke fill markers"
     id="rect5030"
     width="36"
     height="24"
     x="0"
     y="77.6875"
     transform="scale(-1,1)" />
  <rect
     style="opacity:0.5;fill:#99aab5;fill-opacity:1;stroke:none;stroke-width:1.01465;stroke-linecap:round;stroke-linejoin:round;paint-order:stroke fill markers"
     id="rect5038"
     width="36"
     height="24"
     x="0"
     y="113.6875"
     transform="scale(-1,1)" />
  <rect
     style="opacity:0.5;fill:#99aab5;fill-opacity:1;stroke:none;stroke-width:1.01465;stroke-linecap:round;stroke-linejoin:round;paint-order:stroke fill markers"
     id="rect5042"
     width="36"
     height="24"
     x="0"
     y="149.6875"
     transform="scale(-1,1)" />
  <rect
     style="opacity:0.5;fill:#99aab5;fill-opacity:1;stroke:none;stroke-width:1.01465;stroke-linecap:round;stroke-linejoin:round;paint-order:stroke fill markers"
     id="rect5061"
     width="36"
     height="24"
     x="0"
     y="185.6875"
     transform="scale(-1,1)" />
  <path
     sodipodi:type="star"
     style="opacity:0.5;fill:#758c9c;fill-opacity:1;stroke:#758c9c;stroke-width:5;stroke-linecap:round;stroke-linejoin:round;stroke-miterlimit:4;stroke-dasharray:none;stroke-opacity:1;paint-order:stroke fill markers"
     id="path5166"
     inkscape:flatsided="true"
     sodipodi:sides="3"
     sodipodi:cx="-0.92455053"
     sodipodi:cy="18"
     sodipodi:r1="3.6968989"
     sodipodi:r2="1.8484495"
     sodipodi:arg1="-2.0943951"
     sodipodi:arg2="-1.0471976"
     inkscape:rounded="0"
     inkscape:randomized="0"
     inkscape:transform-center-x="0.92422469"
     d="M -2.773,14.798392 2.7723484,18 -2.773,21.201608 Z"
     transform="matrix(-1,0,0,1,-1.1760254e-6,-0.31250846)"
     inkscape:transform-center-y="-9.0926513e-06" />
  <path
     sodipodi:type="star"
     style="opacity:0.5;fill:#758c9c;fill-opacity:1;stroke:#758c9c;stroke-width:5;stroke-linecap:round;stroke-linejoin:round;stroke-miterlimit:4;stroke-dasharray:none;stroke-opacity:1;paint-order:stroke fill markers"
     id="path5168"
     inkscape:flatsided="true"
     sodipodi:sides="3"
     sodipodi:cx="35.075451"
     sodipodi:cy="18"
     sodipodi:r1="3.6968989"
     sodipodi:r2="1.8484495"
     sodipodi:arg1="-2.0943951"
     sodipodi:arg2="-1.0471976"
     inkscape:rounded="0"
     inkscape:randomized="0"
     inkscape:transform-center-x="0.92422469"
     d="M 33.227001,14.798392 38.77235,18 33.227001,21.201608 Z"
     transform="matrix(-1,0,0,1,-1.1760254e-6,-0.31250846)"
     inkscape:transform-center-y="-9.0926513e-06" />
  <path
     sodipodi:type="star"
     style="opacity:0.5;fill:#758c9c;fill-opacity:1;stroke:#758c9c;stroke-width:5;stroke-linecap:round;stroke-linejoin:round;stroke-miterlimit:4;stroke-dasharray:none;stroke-opacity:1;paint-order:stroke fill markers"
     id="path5270"
     inkscape:flatsided="true"
     sodipodi:sides="3"
     sodipodi:cx="20.075899"
     sodipodi:cy="54.000423"
     sodipodi:r1="3.6968989"
     sodipodi:r2="1.8484495"
     sodipodi:arg1="-2.0943951"
     sodipodi:arg2="-1.0471976"
     inkscape:rounded="0"
     inkscape:randomized="0"
     inkscape:transform-center-x="0.92422469"
     d="m 18.22745,50.798815 5.545348,3.201608 -5.545348,3.201609 z"
     transform="matrix(-1,0,0,1,-1.1760254e-6,-0.31250846)"
     inkscape:transform-center-y="-9.0926513e-06" />
  <path
     sodipodi:type="star"
     style="opacity:0.5;fill:#758c9c;fill-opacity:1;stroke:#758c9c;stroke-width:5;stroke-linecap:round;stroke-linejoin:round;stroke-miterlimit:4;stroke-dasharray:none;stroke-opacity:1;paint-order:stroke fill markers"
     id="path5272"
     inkscape:flatsided="true"
     sodipodi:sides="3"
     sodipodi:cx="2.0754495"
     sodipodi:cy="54.000423"
     sodipodi:r1="3.6968989"
     sodipodi:r2="1.8484495"
     sodipodi:arg1="-2.0943951"
     sodipodi:arg2="-1.0471976"
     inkscape:rounded="0"
     inkscape:randomized="0"
     inkscape:transform-center-x="0.92422469"
     d="M 0.22700001,50.798815 5.7723484,54.000423 0.22699999,57.202032 Z"
     transform="matrix(-1,0,0,1,-1.1760254e-6,-0.31250846)"
     inkscape:transform-center-y="-9.0926513e-06" />
  <path
     sodipodi:type="star"
     style="opacity:0.5;fill:#758c9c;fill-opacity:1;stroke:#758c9c;stroke-width:5;stroke-linecap:round;stroke-linejoin:round;stroke-miterlimit:4;stroke-dasharray:none;stroke-opacity:1;paint-order:stroke fill markers"
     id="path5274"
     inkscape:flatsided="true"
     sodipodi:sides="3"
     sodipodi:cx="38.075451"
     sodipodi:cy="54.000423"
     sodipodi:r1="3.6968989"
     sodipodi:r2="1.8484495"
     sodipodi:arg1="-2.0943951"
     sodipodi:arg2="-1.0471976"
     inkscape:rounded="0"
     inkscape:randomized="0"
     inkscape:transform-center-x="0.92422469"
     d="m 36.227001,50.798815 5.545349,3.201608 -5.545349,3.201609 z"
     transform="matrix(-1,0,0,1,-1.1760254e-6,-0.31250846)"
     inkscape:transform-center-y="-9.0926513e-06" />
  <path
     sodipodi:type="star"
     style="opacity:0.5;fill:#758c9c;fill-opacity:1;stroke:#758c9c;stroke-width:5;stroke-linecap:round;stroke-linejoin:round;stroke-miterlimit:4;stroke-dasharray:none;stroke-opacity:1;paint-order:stroke fill markers"
     id="path5276"
     inkscape:flatsided="true"
     sodipodi:sides="3"
     sodipodi:cx="23.075899"
     sodipodi:cy="90.000427"
     sodipodi:r1="3.6968989"
     sodipodi:r2="1.8484495"
     sodipodi:arg1="-2.0943951"
     sodipodi:arg2="-1.0471976"
     inkscape:rounded="0"
     inkscape:randomized="0"
     inkscape:transform-center-x="0.92422469"
     d="m 21.22745,86.798819 5.545348,3.201608 -5.545348,3.201609 z"
     transform="matrix(-1,0,0,1,-1.1760254e-6,-0.31250846)"
     inkscape:transform-center-y="-9.0926513e-06" />
  <path
     sodipodi:type="star"
     style="opacity:0.5;fill:#758c9c;fill-opacity:1;stroke:#758c9c;stroke-width:5;stroke-linecap:round;stroke-linejoin:round;stroke-miterlimit:4;stroke-dasharray:none;stroke-opacity:1;paint-order:stroke fill markers"
     id="path5278"
     inkscape:flatsided="true"
     sodipodi:sides="3"
     sodipodi:cx="5.0754495"
     sodipodi:cy="90.000427"
     sodipodi:r1="3.6968989"
     sodipodi:r2="1.8484495"
     sodipodi:arg1="-2.0943951"
     sodipodi:arg2="-1.0471976"
     inkscape:rounded="0"
     inkscape:randomized="0"
     inkscape:transform-center-x="0.92422469"
     d="M 3.227,86.798819 8.7723484,90.000427 3.227,93.202036 Z"
     transform="matrix(-1,0,0,1,-1.1760254e-6,-0.31250846)"
     inkscape:transform-center-y="-9.0926513e-06" />
  <path
     sodipodi:type="star"
     style="opacity:0.5;fill:#758c9c;fill-opacity:1;stroke:#758c9c;stroke-width:5;stroke-linecap:round;stroke-linejoin:round;stroke-miterlimit:4;stroke-dasharray:none;stroke-opacity:1;paint-order:stroke fill markers"
     id="path5280"
     inkscape:flatsided="true"
     sodipodi:sides="3"
     sodipodi:cx="41.075451"
     sodipodi:cy="90.000427"
     sodipodi:r1="3.6968989"
     sodipodi:r2="1.8484495"
     sodipodi:arg1="-2.0943951"
     sodipodi:arg2="-1.0471976"
     inkscape:rounded="0"
     inkscape:randomized="0"
     inkscape:transform-center-x="0.92422469"
     d="m 39.227001,86.798819 5.545349,3.201608 -5.545349,3.201609 z"
     transform="matrix(-1,0,0,1,-1.1760254e-6,-0.31250846)"
     inkscape:transform-center-y="-9.0926513e-06" />
  <path
     sodipodi:type="star"
     style="opacity:0.5;fill:#758c9c;fill-opacity:1;stroke:#758c9c;stroke-width:5;stroke-linecap:round;stroke-linejoin:round;stroke-miterlimit:4;stroke-dasharray:none;stroke-opacity:1;paint-order:stroke fill markers"
     id="path5282"
     inkscape:flatsided="true"
     sodipodi:sides="3"
     sodipodi:cx="26.075899"
     sodipodi:cy="126.00043"
     sodipodi:r1="3.6968989"
     sodipodi:r2="1.8484495"
     sodipodi:arg1="-2.0943951"
     sodipodi:arg2="-1.0471976"
     inkscape:rounded="0"
     inkscape:randomized="0"
     inkscape:transform-center-x="0.92422469"
     d="m 24.22745,122.79882 5.545348,3.20161 -5.545348,3.20161 z"
     transform="matrix(-1,0,0,1,-1.1760254e-6,-0.31250846)"
     inkscape:transform-center-y="-9.0926513e-06" />
  <path
     sodipodi:type="star"
     style="opacity:0.5;fill:#758c9c;fill-opacity:1;stroke:#758c9c;stroke-width:5;stroke-linecap:round;stroke-linejoin:round;stroke-miterlimit:4;stroke-dasharray:none;stroke-opacity:1;paint-order:stroke fill markers"
     id="path5284"
     inkscape:flatsided="true"
     sodipodi:sides="3"
     sodipodi:cx="8.0754499"
     sodipodi:cy="126.00043"
     sodipodi:r1="3.6968989"
     sodipodi:r2="1.8484495"
     sodipodi:arg1="-2.0943951"
     sodipodi:arg2="-1.0471976"
     inkscape:rounded="0"
     inkscape:randomized="0"
     inkscape:transform-center-x="0.92422469"
     d="m 6.2270005,122.79882 5.5453485,3.20161 -5.5453485,3.20161 z"
     transform="matrix(-1,0,0,1,-1.1760254e-6,-0.31250846)"
     inkscape:transform-center-y="-9.0926513e-06" />
  <path
     sodipodi:type="star"
     style="opacity:0.5;fill:#758c9c;fill-opacity:1;stroke:#758c9c;stroke-width:5;stroke-linecap:round;stroke-linejoin:round;stroke-miterlimit:4;stroke-dasharray:none;stroke-opacity:1;paint-order:stroke fill markers"
     id="path5288"
     inkscape:flatsided="true"
     sodipodi:sides="3"
     sodipodi:cx="29.075899"
     sodipodi:cy="162.00043"
     sodipodi:r1="3.6968989"
     sodipodi:r2="1.8484495"
     sodipodi:arg1="-2.0943951"
     sodipodi:arg2="-1.0471976"
     inkscape:rounded="0"
     inkscape:randomized="0"
     inkscape:transform-center-x="0.92422469"
     d="m 27.22745,158.79882 5.545348,3.20161 -5.545348,3.20161 z"
     transform="matrix(-1,0,0,1,-1.1760254e-6,-0.31250846)"
     inkscape:transform-center-y="-9.0926513e-06" />
  <path
     sodipodi:type="star"
     style="opacity:0.5;fill:#758c9c;fill-opacity:1;stroke:#758c9c;stroke-width:5;stroke-linecap:round;stroke-linejoin:round;stroke-miterlimit:4;stroke-dasharray:none;stroke-opacity:1;paint-order:stroke fill markers"
     id="path5290"
     inkscape:flatsided="true"
     sodipodi:sides="3"
     sodipodi:cx="11.075449"
     sodipodi:cy="162.00043"
     sodipodi:r1="3.6968989"
     sodipodi:r2="1.8484495"
     sodipodi:arg1="-2.0943951"
     sodipodi:arg2="-1.0471976"
     inkscape:rounded="0"
     inkscape:randomized="0"
     inkscape:transform-center-x="0.92422469"
     d="m 9.2269995,158.79882 5.5453485,3.20161 -5.5453485,3.20161 z"
     transform="matrix(-1,0,0,1,-1.1760254e-6,-0.31250846)"
     inkscape:transform-center-y="-9.0926513e-06" />
  <path
     sodipodi:type="star"
     style="opacity:0.5;fill:#758c9c;fill-opacity:1;stroke:#758c9c;stroke-width:5;stroke-linecap:round;stroke-linejoin:round;stroke-miterlimit:4;stroke-dasharray:none;stroke-opacity:1;paint-order:stroke fill markers"
     id="path5294"
     inkscape:flatsided="true"
     sodipodi:sides="3"
     sodipodi:cx="32.075897"
     sodipodi:cy="198.00043"
     sodipodi:r1="3.6968989"
     sodipodi:r2="1.8484495"
     sodipodi:arg1="-2.0943951"
     sodipodi:arg2="-1.0471976"
     inkscape:rounded="0"
     inkscape:randomized="0"
     inkscape:transform-center-x="0.92422469"
     d="m 30.227448,194.79882 5.545348,3.20161 -5.545348,3.20161 z"
     transform="matrix(-1,0,0,1,-1.1760254e-6,-0.31250846)"
     inkscape:transform-center-y="-9.0926513e-06" />
  <path
     sodipodi:type="star"
     style="opacity:0.5;fill:#758c9c;fill-opacity:1;stroke:#758c9c;stroke-width:5;stroke-linecap:round;stroke-linejoin:round;stroke-miterlimit:4;stroke-dasharray:none;stroke-opacity:1;paint-order:stroke fill markers"
     id="path5296"
     inkscape:flatsided="true"
     sodipodi:sides="3"
     sodipodi:cx="14.075449"
     sodipodi:cy="198.00043"
     sodipodi:r1="3.6968989"
     sodipodi:r2="1.8484495"
     sodipodi:arg1="-2.0943951"
     sodipodi:arg2="-1.0471976"
     inkscape:rounded="0"
     inkscape:randomized="0"
     inkscape:transform-center-x="0.92422469"
     d="m 12.227,194.79882 5.545348,3.20161 -5.545348,3.20161 z"
     transform="matrix(-1,0,0,1,-1.1760254e-6,-0.31250846)"
     inkscape:transform-center-y="-9.0926513e-06" />
  <path
     id="path13978"
     style="fill:#758c9c;fill-opacity:1;stroke:none;stroke-linecap:round;stroke-linejoin:round;stroke-opacity:1;paint-order:stroke fill markers"
     d="M 23.668942,34.898251 C 23.222154,34.1245 22.396424,33.647976 21.502939,33.648264 l -6.402306,0 c -1.588724,-3.29e-4 -2.685956,1.419072 -2.479561,2.852172 0.04518,0.199192 0.142913,0.402297 0.300878,0.608724 1.00413,1.311733 1.775178,2.977647 2.20802,4.860737 0.363952,1.587739 2.428501,2.981873 4.055252,1.520864 1.716735,-1.540172 3.257304,-3.489479 4.450497,-5.825376 0.181849,-0.356028 0.297368,-0.753365 0.343215,-1.164949 0,0 0,0 0,0 0.07749,-0.545073 -0.02584,-1.109962 -0.309992,-1.602185 z m -6.026786,16.273867 c 0.292272,-1.031947 -0.04658,-1.986583 -0.765479,-2.516611 L 11.727123,44.860021 C 10.513345,43.965102 9.1808169,43.988854 8.6315628,44.631999 8.4834702,44.811903 8.3856875,45.051768 8.3482867,45.361833 8.1559911,46.955958 7.5534242,48.63948 6.5631748,50.241054 c -0.8369736,1.352335 -0.3800149,3.798127 1.7456872,3.963739 2.247054,0.17596 4.667049,-0.05125 7.122853,-0.786801 0.460147,-0.137967 0.893551,-0.390043 1.26075,-0.725091 0,0 0,0 0,0 0.451545,-0.417534 0.788046,-0.949413 0.949691,-1.520783 z M 1.1054314,59.159402 c 0.9692404,-0.475821 1.45343,-1.367673 1.3648082,-2.256046 L 1.8375583,50.537445 C 1.7251064,49.404116 1.0786185,48.527179 0.50000015,48.221927 c 7e-8,0 -1.5e-7,0 -1.5e-7,0 -0.63602812,-0.209368 -1.36243673,-0.168329 -2.0233964,0.213124 l -5.544922,3.201171 c -1.668539,0.962019 -1.668539,3.370014 0,4.332032 l 5.544922,3.201171 C -0.90266789,59.527755 -0.16638008,59.598533 0.5,59.381761 0.71075531,59.32768 0.91395809,59.253376 1.1054314,59.159402 Z M 23.668942,34.898251 C 23.222154,34.1245 22.396424,33.647976 21.502939,33.648264 l -6.402306,0 c -1.588724,-3.29e-4 -2.685956,1.419072 -2.479561,2.852172 0.04518,0.199192 0.142913,0.402297 0.300878,0.608724 1.00413,1.311733 1.775178,2.977647 2.20802,4.860737 0.363952,1.587739 2.428502,2.981873 4.055252,1.520864 1.716735,-1.540172 3.257304,-3.489479 4.450497,-5.825376 0.181849,-0.356028 0.297368,-0.753365 0.343216,-1.164949 0,0 0,0 0,0 0.07749,-0.545073 -0.02584,-1.109962 -0.309993,-1.602185 z m -6.026786,16.273867 c 0.292272,-1.031947 -0.04658,-1.986583 -0.765479,-2.516611 L 11.727123,44.860021 C 10.513345,43.965102 9.1808169,43.988854 8.6315628,44.631999 8.4834702,44.811903 8.3856875,45.051768 8.3482867,45.361833 8.1559911,46.955958 7.5534242,48.63948 6.5631748,50.241054 c -0.8369736,1.352335 -0.3800146,3.798128 1.7456872,3.963739 2.247054,0.17596 4.667049,-0.05125 7.122853,-0.786801 0.460147,-0.137967 0.893551,-0.390043 1.26075,-0.725091 0,0 0,0 0,0 0.451545,-0.417534 0.788046,-0.949413 0.949691,-1.520783 z"
     sodipodi:nodetypes="csc"
     inkscape:original-d="m 18.5,5.9483981 c 0,0 0,5.0381359 0,30.5520379 0,4.773897 -1.896423,9.352267 -5.272078,12.727922 C 9.852267,52.604013 5.273897,54.500436 0.5,54.500436 h -26.044232"
     inkscape:path-effect="#path-effect13982" />
  <path
     id="path13984"
     style="fill:#758c9c;fill-opacity:1;stroke:none;stroke-linecap:round;stroke-linejoin:round;stroke-opacity:1;paint-order:stroke fill markers"
     d="m 22.962188,114.11545 c -0.190616,-1.07166 -0.91301,-1.79489 -1.791681,-1.9532 l -6.295727,-1.13671 c -1.969762,-0.35599 -3.248371,0.88091 -2.856771,2.1165 0.506217,1.59631 0.715435,3.41919 0.522534,5.33165 -0.162918,1.60554 1.323221,3.61352 3.343544,2.74912 2.126743,-0.90859 4.212747,-2.27135 6.086798,-4.06573 0.793751,-0.76006 1.184107,-1.95704 0.991303,-3.04163 z m -11.089971,13.86112 c 0.612401,-0.87217 0.61275,-1.88564 0.112281,-2.62552 L 8.3992139,120.0523 c -1.1257868,-1.6644 -2.8400862,-1.74098 -3.4035444,-0.62214 -0.7328625,1.4552 -1.8309131,2.86431 -3.2715644,4.056 -1.2112268,1.001 -1.59949592,3.46743 0.3673659,4.31316 2.0743337,0.89292 4.4492875,1.44659 6.9877293,1.55583 1.0737637,0.0459 2.1745487,-0.49722 2.7930167,-1.37858 z m -16.8953789,3.19286 c 0.773759,-0.44679 1.250288,-1.27253 1.25,-2.16602 v -6.40234 c 3.99e-4,-1.92473 -2.082967,-3.12809 -3.75,-2.16602 l -5.5449221,3.20118 c -1.668539,0.96201 -1.668539,3.37001 0,4.33203 l 5.5449221,3.20117 c 0.773517,0.44653 1.726483,0.44653 2.5,0 z M 22.962188,114.11545 c -0.190616,-1.07166 -0.91301,-1.79489 -1.791681,-1.9532 l -6.295727,-1.13671 c -1.969762,-0.35599 -3.248371,0.88091 -2.856771,2.1165 0.506217,1.59631 0.715435,3.41919 0.522534,5.33165 -0.162918,1.60554 1.323222,3.61352 3.343544,2.74912 2.126743,-0.90859 4.212747,-2.27135 6.086798,-4.06573 0.793752,-0.76006 1.184107,-1.95704 0.991303,-3.04163 z m -11.089971,13.86112 c 0.612401,-0.87217 0.61275,-1.88564 0.112281,-2.62552 L 8.3992139,120.0523 c -1.1257868,-1.6644 -2.8400862,-1.74098 -3.4035444,-0.62214 -0.7328625,1.4552 -1.8309131,2.86431 -3.2715644,4.056 -1.21122679,1.001 -1.59949592,3.46743 0.3673659,4.31316 2.0743337,0.89292 4.4492875,1.44659 6.9877293,1.55583 1.0737627,0.0459 2.1745487,-0.49722 2.7930167,-1.37858 z"
     sodipodi:nodetypes="csc"
     inkscape:path-effect="#path-effect13988"
     inkscape:original-d="m 18.5,77.948398 c 0,0 0,5.038136 0,30.552042 0,4.77389 -1.896423,9.35226 -5.272078,12.72792 C 9.852267,124.60401 5.273897,126.50044 0.5,126.50044 h -26.044232" />
  <path
     id="path13990"
     style="fill:#758c9c;fill-opacity:1;stroke:none;stroke-linecap:round;stroke-linejoin:round;stroke-opacity:1;paint-order:stroke fill markers"
     d="m 23.592104,74.311009 c -0.363727,-1.03298 -1.196932,-1.629637 -2.090278,-1.636978 l -6.401288,-0.05503 c -2.002404,-0.01754 -3.043881,1.387871 -2.459223,2.530714 0.758969,1.482958 1.252897,3.256296 1.376662,5.183005 0.103253,1.622569 1.910357,3.336606 3.75411,2.157686 1.944898,-1.242135 3.781345,-2.915923 5.33813,-4.998822 0.65919,-0.882013 0.850049,-2.134666 0.481887,-3.18058 z m -8.641257,15.51701 c 0.465323,-0.964896 0.298942,-1.966794 -0.319425,-2.611944 L 10.201806,82.595942 C 8.8114464,81.14532 7.1380901,81.34237 6.7702168,82.527742 c -0.4803649,1.547815 -1.3484575,3.117283 -2.5816905,4.53706 -1.0405727,1.196903 -0.9928005,3.684721 1.0791706,4.193185 2.1896327,0.538255 4.6160484,0.705308 7.1421151,0.395972 1.068207,-0.131124 2.070999,-0.850539 2.541035,-1.82594 z m -16.9742421,5.34141 c 0.773759,-0.44679 1.25028798,-1.272525 1.24999998,-2.166015 V 86.60107 c 3.99e-4,-1.924731 -2.08296698,-3.128092 -3.74999998,-2.166015 -1.8483074,1.067057 -3.6966147,2.134114 -5.5449219,3.201171 -1.668539,0.962019 -1.668539,3.370014 0,4.332032 1.8483072,1.067057 3.6966145,2.134114 5.5449219,3.201171 0.773517,0.44653 1.726483,0.44653 2.5,0 z M 23.592104,74.311009 c -0.363727,-1.03298 -1.196932,-1.629637 -2.090278,-1.636978 l -6.401288,-0.05503 c -2.002404,-0.01754 -3.043881,1.387871 -2.459223,2.530714 0.758969,1.482958 1.252897,3.256296 1.376662,5.183005 0.103253,1.622569 1.910358,3.336606 3.75411,2.157686 1.944898,-1.242135 3.781345,-2.915923 5.33813,-4.998822 0.65919,-0.882014 0.85005,-2.134666 0.481887,-3.18058 z m -8.641257,15.51701 c 0.465323,-0.964896 0.298942,-1.966793 -0.319425,-2.611944 L 10.201806,82.595942 C 8.8114464,81.14532 7.1380901,81.34237 6.7702168,82.527742 c -0.4803649,1.547815 -1.3484575,3.117283 -2.5816905,4.53706 -1.0405727,1.196903 -0.9928003,3.684722 1.0791706,4.193185 2.1896327,0.538255 4.6160484,0.705308 7.1421151,0.395972 1.068207,-0.131125 2.070999,-0.850539 2.541035,-1.82594 z"
     sodipodi:nodetypes="csc"
     inkscape:path-effect="#path-effect13994"
     inkscape:original-d="m 18.5,41.948398 c 0,0 0,5.038136 0,30.552042 0,4.77389 -1.896423,9.35226 -5.272078,12.72792 C 9.852267,88.60401 5.273897,90.50044 0.5,90.50044 h -26.044232" />
  <path
     id="path13996"
     style="fill:#758c9c;fill-opacity:1;stroke:none;stroke-linecap:round;stroke-linejoin:round;stroke-opacity:1;paint-order:stroke fill markers"
     d="m 21.723496,153.74712 c -0.0143,-1.08611 -0.609994,-1.91524 -1.451404,-2.21518 l -6.028353,-2.15148 c -1.890554,-0.67509 -3.349952,0.3548 -3.160369,1.63017 0.187953,1.26296 0.183595,2.62108 -0.06006,4.01312 -0.07334,0.43025 -0.17088,0.86441 -0.292316,1.30026 -0.434287,1.55511 0.683023,3.7867 2.822575,3.28222 0.530405,-0.12477 1.063883,-0.2755 1.598648,-0.45358 1.7322,-0.58313 3.456608,-1.44183 5.096692,-2.56604 0.908829,-0.62299 1.488945,-1.74064 1.474588,-2.83949 z M 8.4970592,165.58539 c 0.7445937,-0.76005 0.9082676,-1.75923 0.5350588,-2.57126 L 6.3582408,157.19848 C 5.5164709,155.36685 3.8278851,155.02936 3.1001667,156.03783 2.4109701,156.99292 1.5413715,157.88806 0.5,158.65782 l -1.5220619,0.87841 c -1.668534,0.96201 -1.668534,3.37001 0,4.33203 L 0.5,164.74666 c 1.5171069,0.77163 3.20629,1.36628 5.0151614,1.74377 1.0549057,0.21982 2.2300701,-0.13716 2.9818978,-0.90504 z m -16.5202231,1.58404 c 0.773759,-0.44679 1.250288,-1.27253 1.25,-2.16602 v -6.40234 c 3.99e-4,-1.92473 -2.082967,-3.12809 -3.7500001,-2.16602 l -5.544922,3.20118 c -1.668539,0.96201 -1.668539,3.37001 0,4.33203 l 5.544922,3.20117 c 0.7735171,0.44653 1.7264831,0.44653 2.5000001,0 z M 21.723496,153.74712 c -0.0143,-1.08611 -0.609994,-1.91524 -1.451404,-2.21518 l -6.028353,-2.15148 c -1.890554,-0.67509 -3.349952,0.3548 -3.160369,1.63017 0.187953,1.26296 0.183595,2.62108 -0.06006,4.01312 -0.07334,0.43025 -0.17088,0.86441 -0.292316,1.30026 -0.434287,1.55511 0.683024,3.78671 2.822575,3.28222 0.530405,-0.12477 1.063883,-0.2755 1.598648,-0.45358 1.7322,-0.58313 3.456608,-1.44183 5.096692,-2.56604 0.90883,-0.62299 1.488945,-1.74064 1.474588,-2.83949 z M 8.4970592,165.58539 c 0.7445937,-0.76005 0.9082676,-1.75923 0.5350588,-2.57126 L 6.3582408,157.19848 C 5.5164709,155.36685 3.8278851,155.02936 3.1001667,156.03783 2.4109701,156.99292 1.5413715,157.88806 0.5,158.65782 l -1.5220619,0.87841 c -1.668534,0.96201 -1.668534,3.37001 0,4.33203 L 0.5,164.74666 c 1.5171069,0.77163 3.20629,1.36628 5.0151614,1.74377 1.0549057,0.21982 2.2300701,-0.13716 2.9818978,-0.90504 z"
     sodipodi:nodetypes="csc"
     inkscape:path-effect="#path-effect14000"
     inkscape:original-d="m 18.5,113.9484 c 0,0 0,5.03813 0,30.55204 0,4.77389 -1.896423,9.35226 -5.272078,12.72792 C 9.852267,160.60401 5.273897,162.50044 0.5,162.50044 h -26.044232" />
  <path
     id="path14002"
     style="fill:#758c9c;fill-opacity:1;stroke:none;stroke-linecap:round;stroke-linejoin:round;stroke-opacity:1;paint-order:stroke fill markers"
     d="m 23.668937,172.89832 c -0.446788,-0.77375 -1.272517,-1.25028 -2.166001,-1.24999 l -6.4023,0 c -1.924717,-4e-4 -3.128073,2.08295 -2.166003,3.74996 0.981853,1.70072 1.963707,3.40143 2.945562,5.10215 0.08553,0.12506 0.16937,0.25238 0.251459,0.3819 0.861784,1.36156 3.264749,2.03995 4.329145,0.1112 0.08954,-0.16205 0.177096,-0.32642 0.262577,-0.4931 0.981855,-1.70072 1.96371,-3.40143 2.945563,-5.10215 0.446527,-0.77351 0.446526,-1.72646 -2e-6,-2.49997 z m -2.187027,15.86545 c -0.06092,-1.06235 -0.689446,-1.85643 -1.541052,-2.12714 l -6.099756,-1.93805 c -1.919142,-0.61011 -3.30923,0.40733 -3.054227,1.62954 0.292736,1.40311 0.342021,2.94607 0.0759,4.5351 -0.035,0.21532 -0.07616,0.4317 -0.123436,0.64882 -0.3351,1.53578 0.86783,3.71919 2.942701,3.17646 0.26017,-0.0679 0.52098,-0.14249 0.782198,-0.22382 1.93232,-0.60621 3.865092,-1.57406 5.681109,-2.88809 0.871832,-0.63123 1.398414,-1.73977 1.336559,-2.81282 z M 8.4783771,201.69935 c 0.7493857,-0.75978 0.9170821,-1.75912 0.5457474,-2.57158 l -2.658684,-5.82263 C 5.5289748,191.47245 3.8299556,191.13315 3.0913748,192.14245 2.4010953,193.08608 1.534532,193.96992 0.5,194.73081 l -1.5683191,0.90542 c -1.668539,0.96201 -1.668539,3.37001 0,4.33203 L 0.5,200.87367 c 1.5087397,0.76251 3.185131,1.35131 4.9786386,1.72764 1.0594459,0.22227 2.2416432,-0.13351 2.9997385,-0.90196 z M 23.668937,172.89832 c -0.446788,-0.77375 -1.272517,-1.25028 -2.166001,-1.24999 l -6.4023,0 c -1.924717,-4e-4 -3.128073,2.08295 -2.166003,3.74996 0.981853,1.70072 1.963707,3.40143 2.945562,5.10215 0.08553,0.12506 0.16937,0.25238 0.251459,0.3819 0.861784,1.36156 3.26475,2.03995 4.329145,0.1112 0.08954,-0.16205 0.177096,-0.32642 0.262577,-0.4931 0.981855,-1.70072 1.96371,-3.40143 2.945563,-5.10215 0.446527,-0.77351 0.446526,-1.72646 -2e-6,-2.49997 z m -2.187027,15.86545 c -0.06092,-1.06235 -0.689446,-1.85643 -1.541052,-2.12714 l -6.099756,-1.93805 c -1.919142,-0.61011 -3.30923,0.40733 -3.054227,1.62954 0.292736,1.40311 0.342021,2.94607 0.0759,4.5351 -0.035,0.21532 -0.07616,0.4317 -0.123436,0.64882 -0.3351,1.53578 0.867831,3.71919 2.942701,3.17646 0.26017,-0.0679 0.52098,-0.14249 0.782198,-0.22382 1.93232,-0.60621 3.865092,-1.57406 5.681109,-2.88809 0.871832,-0.63123 1.398413,-1.73977 1.336559,-2.81282 z"
     sodipodi:nodetypes="csc"
     inkscape:path-effect="#path-effect14006"
     inkscape:original-d="m 18.5,149.9484 c 0,0 0,5.03813 0,30.55204 0,4.77389 -1.896423,9.35226 -5.272078,12.72792 C 9.852267,196.60401 5.273897,198.50044 0.5,198.50044 h -26.044232" />
</svg>
