<?xml version="1.0" encoding="UTF-8" standalone="no"?>
<svg
   viewBox="0 0 36 216"
   version="1.1"
   id="svg28"
   sodipodi:docname="curved_conveyor_cropped.svg"
   inkscape:export-filename="D:\Programming\Java\FactoryGame\source\tile\textures\curved_conveyor.png"
   inkscape:export-xdpi="682.66669"
   inkscape:export-ydpi="682.66669"
   inkscape:version="1.1 (c68e22c387, 2021-05-23)"
   width="36"
   height="216"
   xmlns:inkscape="http://www.inkscape.org/namespaces/inkscape"
   xmlns:sodipodi="http://sodipodi.sourceforge.net/DTD/sodipodi-0.dtd"
   xmlns="http://www.w3.org/2000/svg"
   xmlns:svg="http://www.w3.org/2000/svg">
  <defs
     id="defs32">
    <inkscape:path-effect
       effect="skeletal"
       id="path-effect14012"
       is_visible="true"
       lpeversion="1"
       pattern="m 55.249539,5.2638302 c -0.773759,0.44679 -1.250288,1.272525 -1.25,2.166015 v 6.4023438 c -3.99e-4,1.924731 2.082967,3.128092 3.75,2.166015 l 5.544922,-3.201171 c 1.668534,-0.962019 1.668534,-3.3700126 0,-4.3320318 l -5.544922,-3.201171 c -0.773516,-0.44653 -1.726483,-0.44653 -2.5,0 z M 69.603516,5.863813 c -0.774511,0.446293 -1.251839,1.272122 -1.251953,2.166015 v 6.402344 c -3.99e-4,1.924731 2.082966,3.128091 3.749999,2.166015 l 5.546875,-3.201171 c 1.668534,-0.962019 1.668534,-3.370013 0,-4.3320319 L 72.101562,5.863813 c -0.77302,-0.445779 -1.725026,-0.445779 -2.498046,0 z m 15.046023,-0.1 c -0.773759,0.4467897 -1.250288,1.2725249 -1.25,2.166015 v 6.402344 c -3.99e-4,1.924731 2.082967,3.128092 3.75,2.166015 l 5.544922,-3.201171 c 1.668539,-0.962019 1.668539,-3.3700138 0,-4.332032 L 87.149539,5.763813 c -0.773517,-0.4465304 -1.726483,-0.4465304 -2.5,0 z m -29.4,-0.4999828 c -0.773759,0.4467897 -1.250288,1.2725249 -1.25,2.166015 v 6.4023438 c -3.99e-4,1.924731 2.082967,3.128092 3.75,2.166015 l 5.544922,-3.201171 c 1.668534,-0.962019 1.668534,-3.3700136 0,-4.3320318 l -5.544922,-3.201171 c -0.773517,-0.4465304 -1.726483,-0.4465304 -2.5,0 z M 69.603516,5.863813 c -0.774511,0.446293 -1.251839,1.2721219 -1.251953,2.166015 v 6.402344 c -3.99e-4,1.924731 2.082966,3.128091 3.749999,2.166015 l 5.546875,-3.201171 c 1.668534,-0.962019 1.668534,-3.370014 0,-4.3320319 L 72.101562,5.863813 c -0.77302,-0.4457788 -1.725026,-0.4457788 -2.498046,0 z"
       copytype="repeated"
       prop_scale="1"
       scale_y_rel="false"
       spacing="0"
       normal_offset="0.5"
       tang_offset="24.7"
       prop_units="false"
       vertical_pattern="false"
       hide_knot="false"
       fuse_tolerance="0" />
    <inkscape:path-effect
       effect="skeletal"
       id="path-effect14006"
       is_visible="true"
       lpeversion="1"
       pattern="m 55.249539,5.2638302 c -0.773759,0.44679 -1.250288,1.272525 -1.25,2.166015 v 6.4023438 c -3.99e-4,1.924731 2.082967,3.128092 3.75,2.166015 l 5.544922,-3.201171 c 1.668534,-0.962019 1.668534,-3.3700126 0,-4.3320318 l -5.544922,-3.201171 c -0.773516,-0.44653 -1.726483,-0.44653 -2.5,0 z M 69.603516,5.863813 c -0.774511,0.446293 -1.251839,1.272122 -1.251953,2.166015 v 6.402344 c -3.99e-4,1.924731 2.082966,3.128091 3.749999,2.166015 l 5.546875,-3.201171 c 1.668534,-0.962019 1.668534,-3.370013 0,-4.3320319 L 72.101562,5.863813 c -0.77302,-0.445779 -1.725026,-0.445779 -2.498046,0 z m 15.046023,-0.1 c -0.773759,0.4467897 -1.250288,1.2725249 -1.25,2.166015 v 6.402344 c -3.99e-4,1.924731 2.082967,3.128092 3.75,2.166015 l 5.544922,-3.201171 c 1.668539,-0.962019 1.668539,-3.3700138 0,-4.332032 L 87.149539,5.763813 c -0.773517,-0.4465304 -1.726483,-0.4465304 -2.5,0 z m -29.4,-0.4999828 c -0.773759,0.4467897 -1.250288,1.2725249 -1.25,2.166015 v 6.4023438 c -3.99e-4,1.924731 2.082967,3.128092 3.75,2.166015 l 5.544922,-3.201171 c 1.668534,-0.962019 1.668534,-3.3700136 0,-4.3320318 l -5.544922,-3.201171 c -0.773517,-0.4465304 -1.726483,-0.4465304 -2.5,0 z M 69.603516,5.863813 c -0.774511,0.446293 -1.251839,1.2721219 -1.251953,2.166015 v 6.402344 c -3.99e-4,1.924731 2.082966,3.128091 3.749999,2.166015 l 5.546875,-3.201171 c 1.668534,-0.962019 1.668534,-3.370014 0,-4.3320319 L 72.101562,5.863813 c -0.77302,-0.4457788 -1.725026,-0.4457788 -2.498046,0 z"
       copytype="repeated"
       prop_scale="1"
       scale_y_rel="false"
       spacing="0"
       normal_offset="0.5"
       tang_offset="21.7"
       prop_units="false"
       vertical_pattern="false"
       hide_knot="false"
       fuse_tolerance="0" />
    <inkscape:path-effect
       effect="skeletal"
       id="path-effect14000"
       is_visible="true"
       lpeversion="1"
       pattern="m 55.249539,5.2638302 c -0.773759,0.44679 -1.250288,1.272525 -1.25,2.166015 v 6.4023438 c -3.99e-4,1.924731 2.082967,3.128092 3.75,2.166015 l 5.544922,-3.201171 c 1.668534,-0.962019 1.668534,-3.3700126 0,-4.3320318 l -5.544922,-3.201171 c -0.773516,-0.44653 -1.726483,-0.44653 -2.5,0 z M 69.603516,5.863813 c -0.774511,0.446293 -1.251839,1.272122 -1.251953,2.166015 v 6.402344 c -3.99e-4,1.924731 2.082966,3.128091 3.749999,2.166015 l 5.546875,-3.201171 c 1.668534,-0.962019 1.668534,-3.370013 0,-4.3320319 L 72.101562,5.863813 c -0.77302,-0.445779 -1.725026,-0.445779 -2.498046,0 z m 15.046023,-0.1 c -0.773759,0.4467897 -1.250288,1.2725249 -1.25,2.166015 v 6.402344 c -3.99e-4,1.924731 2.082967,3.128092 3.75,2.166015 l 5.544922,-3.201171 c 1.668539,-0.962019 1.668539,-3.3700138 0,-4.332032 L 87.149539,5.763813 c -0.773517,-0.4465304 -1.726483,-0.4465304 -2.5,0 z m -29.4,-0.4999828 c -0.773759,0.4467897 -1.250288,1.2725249 -1.25,2.166015 v 6.4023438 c -3.99e-4,1.924731 2.082967,3.128092 3.75,2.166015 l 5.544922,-3.201171 c 1.668534,-0.962019 1.668534,-3.3700136 0,-4.3320318 l -5.544922,-3.201171 c -0.773517,-0.4465304 -1.726483,-0.4465304 -2.5,0 z M 69.603516,5.863813 c -0.774511,0.446293 -1.251839,1.2721219 -1.251953,2.166015 v 6.402344 c -3.99e-4,1.924731 2.082966,3.128091 3.749999,2.166015 l 5.546875,-3.201171 c 1.668534,-0.962019 1.668534,-3.370014 0,-4.3320319 L 72.101562,5.863813 c -0.77302,-0.4457788 -1.725026,-0.4457788 -2.498046,0 z"
       copytype="repeated"
       prop_scale="1"
       scale_y_rel="false"
       spacing="0"
       normal_offset="0.5"
       tang_offset="36.7"
       prop_units="false"
       vertical_pattern="false"
       hide_knot="false"
       fuse_tolerance="0" />
    <inkscape:path-effect
       effect="skeletal"
       id="path-effect13994"
       is_visible="true"
       lpeversion="1"
       pattern="m 55.249539,5.2638302 c -0.773759,0.44679 -1.250288,1.272525 -1.25,2.166015 v 6.4023438 c -3.99e-4,1.924731 2.082967,3.128092 3.75,2.166015 l 5.544922,-3.201171 c 1.668534,-0.962019 1.668534,-3.3700126 0,-4.3320318 l -5.544922,-3.201171 c -0.773516,-0.44653 -1.726483,-0.44653 -2.5,0 z M 69.603516,5.863813 c -0.774511,0.446293 -1.251839,1.272122 -1.251953,2.166015 v 6.402344 c -3.99e-4,1.924731 2.082966,3.128091 3.749999,2.166015 l 5.546875,-3.201171 c 1.668534,-0.962019 1.668534,-3.370013 0,-4.3320319 L 72.101562,5.863813 c -0.77302,-0.445779 -1.725026,-0.445779 -2.498046,0 z m 15.046023,-0.1 c -0.773759,0.4467897 -1.250288,1.2725249 -1.25,2.166015 v 6.402344 c -3.99e-4,1.924731 2.082967,3.128092 3.75,2.166015 l 5.544922,-3.201171 c 1.668539,-0.962019 1.668539,-3.3700138 0,-4.332032 L 87.149539,5.763813 c -0.773517,-0.4465304 -1.726483,-0.4465304 -2.5,0 z m -29.4,-0.4999828 c -0.773759,0.4467897 -1.250288,1.2725249 -1.25,2.166015 v 6.4023438 c -3.99e-4,1.924731 2.082967,3.128092 3.75,2.166015 l 5.544922,-3.201171 c 1.668534,-0.962019 1.668534,-3.3700136 0,-4.3320318 l -5.544922,-3.201171 c -0.773517,-0.4465304 -1.726483,-0.4465304 -2.5,0 z M 69.603516,5.863813 c -0.774511,0.446293 -1.251839,1.2721219 -1.251953,2.166015 v 6.402344 c -3.99e-4,1.924731 2.082966,3.128091 3.749999,2.166015 l 5.546875,-3.201171 c 1.668534,-0.962019 1.668534,-3.370014 0,-4.3320319 L 72.101562,5.863813 c -0.77302,-0.4457788 -1.725026,-0.4457788 -2.498046,0 z"
       copytype="repeated"
       prop_scale="1"
       scale_y_rel="false"
       spacing="0"
       normal_offset="0.5"
       tang_offset="30.7"
       prop_units="false"
       vertical_pattern="false"
       hide_knot="false"
       fuse_tolerance="0" />
    <inkscape:path-effect
       effect="skeletal"
       id="path-effect13988"
       is_visible="true"
       lpeversion="1"
       pattern="m 55.249539,5.2638302 c -0.773759,0.44679 -1.250288,1.272525 -1.25,2.166015 v 6.4023438 c -3.99e-4,1.924731 2.082967,3.128092 3.75,2.166015 l 5.544922,-3.201171 c 1.668534,-0.962019 1.668534,-3.3700126 0,-4.3320318 l -5.544922,-3.201171 c -0.773516,-0.44653 -1.726483,-0.44653 -2.5,0 z M 69.603516,5.863813 c -0.774511,0.446293 -1.251839,1.272122 -1.251953,2.166015 v 6.402344 c -3.99e-4,1.924731 2.082966,3.128091 3.749999,2.166015 l 5.546875,-3.201171 c 1.668534,-0.962019 1.668534,-3.370013 0,-4.3320319 L 72.101562,5.863813 c -0.77302,-0.445779 -1.725026,-0.445779 -2.498046,0 z m 15.046023,-0.1 c -0.773759,0.4467897 -1.250288,1.2725249 -1.25,2.166015 v 6.402344 c -3.99e-4,1.924731 2.082967,3.128092 3.75,2.166015 l 5.544922,-3.201171 c 1.668539,-0.962019 1.668539,-3.3700138 0,-4.332032 L 87.149539,5.763813 c -0.773517,-0.4465304 -1.726483,-0.4465304 -2.5,0 z m -29.4,-0.4999828 c -0.773759,0.4467897 -1.250288,1.2725249 -1.25,2.166015 v 6.4023438 c -3.99e-4,1.924731 2.082967,3.128092 3.75,2.166015 l 5.544922,-3.201171 c 1.668534,-0.962019 1.668534,-3.3700136 0,-4.3320318 l -5.544922,-3.201171 c -0.773517,-0.4465304 -1.726483,-0.4465304 -2.5,0 z M 69.603516,5.863813 c -0.774511,0.446293 -1.251839,1.2721219 -1.251953,2.166015 v 6.402344 c -3.99e-4,1.924731 2.082966,3.128091 3.749999,2.166015 l 5.546875,-3.201171 c 1.668534,-0.962019 1.668534,-3.370014 0,-4.3320319 L 72.101562,5.863813 c -0.77302,-0.4457788 -1.725026,-0.4457788 -2.498046,0 z"
       copytype="repeated"
       prop_scale="1"
       scale_y_rel="false"
       spacing="0"
       normal_offset="0.5"
       tang_offset="33.7"
       prop_units="false"
       vertical_pattern="false"
       hide_knot="false"
       fuse_tolerance="0" />
    <inkscape:path-effect
       effect="skeletal"
       id="path-effect13982"
       is_visible="true"
       lpeversion="1"
       pattern="m 55.249539,5.2638302 c -0.773759,0.44679 -1.250288,1.272525 -1.25,2.166015 v 6.4023438 c -3.99e-4,1.924731 2.082967,3.128092 3.75,2.166015 l 5.544922,-3.201171 c 1.668534,-0.962019 1.668534,-3.3700126 0,-4.3320318 l -5.544922,-3.201171 c -0.773516,-0.44653 -1.726483,-0.44653 -2.5,0 z M 69.603516,5.863813 c -0.774511,0.446293 -1.251839,1.272122 -1.251953,2.166015 v 6.402344 c -3.99e-4,1.924731 2.082966,3.128091 3.749999,2.166015 l 5.546875,-3.201171 c 1.668534,-0.962019 1.668534,-3.370013 0,-4.3320319 L 72.101562,5.863813 c -0.77302,-0.445779 -1.725026,-0.445779 -2.498046,0 z m 15.046023,-0.1 c -0.773759,0.4467897 -1.250288,1.2725249 -1.25,2.166015 v 6.402344 c -3.99e-4,1.924731 2.082967,3.128092 3.75,2.166015 l 5.544922,-3.201171 c 1.668539,-0.962019 1.668539,-3.3700138 0,-4.332032 L 87.149539,5.763813 c -0.773517,-0.4465304 -1.726483,-0.4465304 -2.5,0 z m -29.4,-0.4999828 c -0.773759,0.4467897 -1.250288,1.2725249 -1.25,2.166015 v 6.4023438 c -3.99e-4,1.924731 2.082967,3.128092 3.75,2.166015 l 5.544922,-3.201171 c 1.668534,-0.962019 1.668534,-3.3700136 0,-4.3320318 l -5.544922,-3.201171 c -0.773517,-0.4465304 -1.726483,-0.4465304 -2.5,0 z M 69.603516,5.863813 c -0.774511,0.446293 -1.251839,1.2721219 -1.251953,2.166015 v 6.402344 c -3.99e-4,1.924731 2.082966,3.128091 3.749999,2.166015 l 5.546875,-3.201171 c 1.668534,-0.962019 1.668534,-3.370014 0,-4.3320319 L 72.101562,5.863813 c -0.77302,-0.4457788 -1.725026,-0.4457788 -2.498046,0 z"
       copytype="repeated"
       prop_scale="1"
       scale_y_rel="false"
       spacing="0"
       normal_offset="0.5"
       tang_offset="27.7"
       prop_units="false"
       vertical_pattern="false"
       hide_knot="false"
       fuse_tolerance="0" />
    <inkscape:path-effect
       effect="skeletal"
       id="path-effect11579"
       is_visible="true"
       lpeversion="1"
       pattern="m 55.249539,5.2638302 c -0.773759,0.44679 -1.250288,1.272525 -1.25,2.166015 v 6.4023438 c -3.99e-4,1.924731 2.082967,3.128092 3.75,2.166015 l 5.544922,-3.201171 c 1.668534,-0.962019 1.668534,-3.3700126 0,-4.3320318 l -5.544922,-3.201171 c -0.773516,-0.44653 -1.726483,-0.44653 -2.5,0 z M 69.603516,5.863813 c -0.774511,0.446293 -1.251839,1.272122 -1.251953,2.166015 v 6.402344 c -3.99e-4,1.924731 2.082966,3.128091 3.749999,2.166015 l 5.546875,-3.201171 c 1.668534,-0.962019 1.668534,-3.370013 0,-4.3320319 L 72.101562,5.863813 c -0.77302,-0.445779 -1.725026,-0.445779 -2.498046,0 z m 15.046023,-0.1 c -0.773759,0.4467897 -1.250288,1.2725249 -1.25,2.166015 v 6.402344 c -3.99e-4,1.924731 2.082967,3.128092 3.75,2.166015 l 5.544922,-3.201171 c 1.668539,-0.962019 1.668539,-3.3700138 0,-4.332032 L 87.149539,5.763813 c -0.773517,-0.4465304 -1.726483,-0.4465304 -2.5,0 z m -29.4,-0.4999828 c -0.773759,0.4467897 -1.250288,1.2725249 -1.25,2.166015 v 6.4023438 c -3.99e-4,1.924731 2.082967,3.128092 3.75,2.166015 l 5.544922,-3.201171 c 1.668534,-0.962019 1.668534,-3.3700136 0,-4.3320318 l -5.544922,-3.201171 c -0.773517,-0.4465304 -1.726483,-0.4465304 -2.5,0 z M 69.603516,5.863813 c -0.774511,0.446293 -1.251839,1.2721219 -1.251953,2.166015 v 6.402344 c -3.99e-4,1.924731 2.082966,3.128091 3.749999,2.166015 l 5.546875,-3.201171 c 1.668534,-0.962019 1.668534,-3.370014 0,-4.3320319 L 72.101562,5.863813 c -0.77302,-0.4457788 -1.725026,-0.4457788 -2.498046,0 z"
       copytype="repeated"
       prop_scale="1"
       scale_y_rel="false"
       spacing="0"
       normal_offset="0.5"
       tang_offset="24.7"
       prop_units="false"
       vertical_pattern="false"
       hide_knot="false"
       fuse_tolerance="0" />
    <inkscape:path-effect
       effect="skeletal"
       id="path-effect8912"
       is_visible="true"
       lpeversion="1"
       pattern="m -4.0234375,12.632813 a 2.50025,2.50025 0 0 0 -1.25,2.166015 v 6.402344 a 2.50025,2.50025 0 0 0 3.75,2.166015 l 5.5449219,-3.201171 a 2.50025,2.50025 0 0 0 0,-4.332032 l -5.5449219,-3.201171 a 2.50025,2.50025 0 0 0 -2.5,0 z"
       copytype="repeated"
       prop_scale="1"
       scale_y_rel="false"
       spacing="6"
       normal_offset="1"
       tang_offset="0"
       prop_units="false"
       vertical_pattern="false"
       hide_knot="false"
       fuse_tolerance="0" />
    <inkscape:path-effect
       effect="skeletal"
       id="path-effect3744"
       is_visible="true"
       lpeversion="1"
       pattern="M 0,6 H 36 V 30 H 0 Z"
       copytype="single_stretched"
       prop_scale="1"
       scale_y_rel="false"
       spacing="0"
       normal_offset="0"
       tang_offset="0"
       prop_units="false"
       vertical_pattern="false"
       hide_knot="false"
       fuse_tolerance="0" />
    <inkscape:path-effect
       effect="skeletal"
       id="path-effect1412"
       is_visible="true"
       lpeversion="1"
       pattern="m -57.920313,6 h 36 v 24 h -36 z"
       copytype="single_stretched"
       prop_scale="1"
       scale_y_rel="false"
       spacing="0"
       normal_offset="0"
       tang_offset="0"
       prop_units="false"
       vertical_pattern="false"
       hide_knot="false"
       fuse_tolerance="0" />
    <inkscape:path-effect
       effect="skeletal"
       id="path-effect1337"
       is_visible="true"
       lpeversion="1"
       pattern="M 0,0 H 1"
       copytype="single_stretched"
       prop_scale="1"
       scale_y_rel="false"
       spacing="0"
       normal_offset="0"
       tang_offset="0"
       prop_units="false"
       vertical_pattern="false"
       hide_knot="false"
       fuse_tolerance="0" />
  </defs>
  <sodipodi:namedview
     id="namedview30"
     pagecolor="#505050"
     bordercolor="#ffffff"
     borderopacity="1"
     inkscape:pageshadow="0"
     inkscape:pageopacity="0"
     inkscape:pagecheckerboard="1"
     showgrid="false"
     inkscape:zoom="2.828427"
     inkscape:cx="-15.02602"
     inkscape:cy="100.23239"
     inkscape:window-width="1920"
     inkscape:window-height="1001"
     inkscape:window-x="-9"
     inkscape:window-y="-9"
     inkscape:window-maximized="1"
     inkscape:current-layer="svg28" />
  <path
     id="path2147"
     style="fill:#99aab5;stroke:none;stroke-width:1;stroke-linecap:round;stroke-linejoin:round;paint-order:stroke fill markers;stroke-opacity:1;stroke-miterlimit:4;stroke-dasharray:none;fill-opacity:1"
     d="M 5.6875 0 C 5.1549022 0.99483112 4.2700388 2.0527322 3.1835938 3.1835938 C 2.0527328 4.270038 0.99483076 5.1549024 0 5.6875 L 0 30 C 5.2096262 29.695302 9.1378543 28.375462 11.677734 26.658203 C 14.984169 24.771319 17.80625 22.547475 20.154297 20.154297 C 22.547476 17.80625 24.771319 14.98417 26.658203 11.677734 C 28.375462 9.1378538 29.695302 5.2096262 30 0 L 5.6875 0 z " />
  <path
     id="path5483"
     style="fill:#99aab5;fill-opacity:1;stroke:none;stroke-width:1;stroke-linecap:round;stroke-linejoin:round;stroke-miterlimit:4;stroke-dasharray:none;stroke-opacity:1;paint-order:stroke fill markers"
     d="M 5.6875,36 C 5.1549022,36.994831 4.2700388,38.052732 3.1835938,39.183594 2.0527328,40.270038 0.99483076,41.154902 0,41.6875 V 66 c 5.2096262,-0.304698 9.1378543,-1.624538 11.677734,-3.341797 3.306435,-1.886884 6.128516,-4.110728 8.476563,-6.503906 2.393179,-2.348047 4.617022,-5.170127 6.503906,-8.476563 C 28.375462,45.137854 29.695302,41.209626 30,36 Z" />
  <path
     id="path5485"
     style="fill:#99aab5;fill-opacity:1;stroke:none;stroke-width:1;stroke-linecap:round;stroke-linejoin:round;stroke-miterlimit:4;stroke-dasharray:none;stroke-opacity:1;paint-order:stroke fill markers"
     d="M 5.6875,72 C 5.1549022,72.994831 4.2700388,74.052732 3.1835938,75.183594 2.0527328,76.270038 0.99483076,77.154902 0,77.6875 V 102 c 5.2096262,-0.3047 9.1378543,-1.62454 11.677734,-3.341797 3.306435,-1.886884 6.128516,-4.110728 8.476563,-6.503906 2.393179,-2.348047 4.617022,-5.170127 6.503906,-8.476563 C 28.375462,81.137854 29.695302,77.209626 30,72 Z" />
  <path
     id="path5487"
     style="fill:#99aab5;fill-opacity:1;stroke:none;stroke-width:1;stroke-linecap:round;stroke-linejoin:round;stroke-miterlimit:4;stroke-dasharray:none;stroke-opacity:1;paint-order:stroke fill markers"
     d="m 5.6875,108 c -0.5325978,0.99483 -1.4174612,2.05273 -2.5039062,3.18359 C 2.0527328,112.27004 0.99483076,113.1549 0,113.6875 V 138 c 5.2096262,-0.3047 9.1378543,-1.62454 11.677734,-3.3418 3.306435,-1.88688 6.128516,-4.11072 8.476563,-6.5039 2.393179,-2.34805 4.617022,-5.17013 6.503906,-8.47657 C 28.375462,117.13785 29.695302,113.20963 30,108 Z" />
  <path
     id="path5489"
     style="fill:#99aab5;fill-opacity:1;stroke:none;stroke-width:1;stroke-linecap:round;stroke-linejoin:round;stroke-miterlimit:4;stroke-dasharray:none;stroke-opacity:1;paint-order:stroke fill markers"
     d="m 5.6875,144 c -0.5325978,0.99483 -1.4174612,2.05273 -2.5039062,3.18359 C 2.0527328,148.27004 0.99483076,149.1549 0,149.6875 V 174 c 5.2096262,-0.3047 9.1378543,-1.62454 11.677734,-3.3418 3.306435,-1.88688 6.128516,-4.11072 8.476563,-6.5039 2.393179,-2.34805 4.617022,-5.17013 6.503906,-8.47657 C 28.375462,153.13785 29.695302,149.20963 30,144 Z" />
  <path
     id="path5491"
     style="fill:#99aab5;fill-opacity:1;stroke:none;stroke-width:1;stroke-linecap:round;stroke-linejoin:round;stroke-miterlimit:4;stroke-dasharray:none;stroke-opacity:1;paint-order:stroke fill markers"
     d="m 5.6875,180 c -0.5325978,0.99483 -1.4174612,2.05273 -2.5039062,3.18359 C 2.0527328,184.27004 0.99483076,185.1549 0,185.6875 V 210 c 5.2096262,-0.3047 9.1378543,-1.62454 11.677734,-3.3418 3.306435,-1.88688 6.128516,-4.11072 8.476563,-6.5039 2.393179,-2.34805 4.617022,-5.17013 6.503906,-8.47657 C 28.375462,189.13785 29.695302,185.20963 30,180 Z" />
  <path
     id="path10835"
     style="fill:#758c9c;stroke:none;stroke-linecap:round;stroke-linejoin:round;stroke-opacity:1;paint-order:stroke fill markers;fill-opacity:1"
     d="M 13.859375 0 L 14.148438 0.5 C 14.315143 0.71417144 14.476157 0.93667375 14.630859 1.1679688 C 14.785561 1.3992638 14.93426 1.6393247 15.076172 1.8867188 C 15.218084 2.1341128 15.352132 2.3898752 15.480469 2.6523438 C 15.608805 2.9148123 15.731729 3.184419 15.845703 3.4609375 C 15.884292 3.5547188 15.927699 3.6466353 15.978516 3.7363281 C 16.130967 4.0054065 16.335981 4.2528591 16.576172 4.4648438 C 16.656235 4.5355053 16.740792 4.6019999 16.828125 4.6640625 C 17.26479 4.9743753 17.785131 5.1708746 18.310547 5.1816406 C 18.41563 5.1837938 18.520086 5.1792272 18.625 5.1660156 C 18.729914 5.1528041 18.833995 5.1312664 18.9375 5.1015625 C 19.14451 5.0421547 19.349033 4.9485493 19.542969 4.8164062 C 19.639937 4.7503347 19.734332 4.6738374 19.826172 4.5878906 C 19.918012 4.5019439 20.006325 4.4057777 20.091797 4.2988281 C 20.315646 4.0190342 20.534635 3.7299773 20.746094 3.4316406 C 20.957553 3.133304 21.161587 2.8264763 21.359375 2.5097656 C 21.557163 2.1930549 21.748803 1.8661662 21.931641 1.53125 C 22.114478 1.1963338 22.288472 0.85295309 22.455078 0.5 L 22.744141 0 L 13.859375 0 z M 11.384766 6.4707031 C 11.291055 6.4722752 11.199368 6.4787615 11.111328 6.4902344 C 11.023288 6.5017072 10.939157 6.5183086 10.857422 6.5390625 C 10.448747 6.6428319 10.121407 6.859127 9.9179688 7.1484375 C 9.877281 7.2062996 9.843074 7.2666538 9.8125 7.3300781 C 9.781926 7.3935025 9.7561537 7.4589769 9.7363281 7.5273438 C 9.6966771 7.6640774 9.6783956 7.8101057 9.6855469 7.9628906 C 9.7111307 8.5095415 9.697266 9.0704849 9.6386719 9.6386719 C 9.5327191 10.747775 9.2409844 11.898984 8.7714844 13.044922 C 8.5836012 13.502921 8.5379251 14.046712 8.6269531 14.572266 C 8.6981755 14.992708 8.856641 15.402171 9.0996094 15.746094 C 9.1603515 15.832074 9.2255889 15.913194 9.296875 15.990234 C 9.3681611 16.067274 9.4455898 16.140595 9.5273438 16.207031 C 9.6090977 16.273467 9.6949636 16.334503 9.7871094 16.388672 C 10.063547 16.551179 10.387265 16.653618 10.755859 16.675781 C 10.878724 16.683169 11.00572 16.681454 11.138672 16.669922 C 11.509189 16.637931 11.883929 16.595197 12.259766 16.539062 C 13.011438 16.426794 13.77154 16.265284 14.537109 16.050781 C 14.919894 15.94353 15.303087 15.821726 15.6875 15.6875 C 16.082745 15.54767 16.478102 15.395804 16.871094 15.228516 C 17.264086 15.061227 17.655872 14.880072 18.044922 14.685547 C 18.286833 14.564504 18.512948 14.410209 18.716797 14.230469 C 18.920646 14.050728 19.102182 13.844798 19.257812 13.621094 C 19.335628 13.509242 19.406847 13.393518 19.470703 13.273438 C 19.534559 13.153357 19.590045 13.028811 19.638672 12.902344 C 19.735926 12.649409 19.801357 12.386572 19.830078 12.119141 C 19.844338 11.986732 19.849785 11.856826 19.845703 11.730469 C 19.841622 11.604111 19.829841 11.480443 19.808594 11.361328 C 19.723604 10.88487 19.506007 10.471105 19.193359 10.158203 C 19.115198 10.079978 19.030859 10.008383 18.941406 9.9433594 C 18.851953 9.8783358 18.755819 9.8201612 18.65625 9.7695312 L 12.951172 6.8691406 C 12.613547 6.6974542 12.286004 6.5856574 11.976562 6.5253906 C 11.770268 6.4852128 11.572187 6.467559 11.384766 6.4707031 z M 2.1113281 12.039062 C 1.7503725 12.026076 1.4061923 12.152305 1.1347656 12.419922 C 0.93323074 12.618695 0.72128863 12.811628 0.5 12.998047 L -4.0683594 15.636719 C -5.7368984 16.598738 -5.7368984 19.006732 -4.0683594 19.96875 L 0.5 22.605469 C 0.90345615 22.792284 1.3159819 22.967129 1.7382812 23.130859 C 2.7542476 23.52473 3.9886647 23.366905 4.8652344 22.732422 C 5.7319767 22.104918 6.0588872 21.1449 5.8242188 20.283203 L 4.1445312 14.109375 C 3.7803411 12.769279 2.9054305 12.067632 2.1113281 12.039062 z " />
  <path
     id="path13978"
     style="fill:#758c9c;fill-opacity:1;stroke:none;stroke-linecap:round;stroke-linejoin:round;stroke-opacity:1;paint-order:stroke fill markers"
     d="M 12.603516 36 C 12.598703 36.077146 12.595107 36.154438 12.597656 36.232422 C 12.60057 36.32154 12.608194 36.410431 12.621094 36.5 C 12.666269 36.699192 12.76391 36.902948 12.921875 37.109375 C 13.172908 37.437308 13.408652 37.788138 13.628906 38.158203 C 13.739034 38.343236 13.845449 38.5318 13.947266 38.726562 C 14.150899 39.116088 14.337931 39.525936 14.505859 39.951172 C 14.589824 40.16379 14.669719 40.378867 14.744141 40.599609 C 14.892984 41.041094 15.022649 41.499931 15.130859 41.970703 C 15.153606 42.069937 15.181286 42.168554 15.216797 42.265625 C 15.252308 42.362696 15.294566 42.457172 15.341797 42.550781 C 15.483489 42.83161 15.675922 43.094034 15.904297 43.320312 C 16.132672 43.546591 16.396728 43.736406 16.683594 43.873047 C 17.161703 44.100781 17.70211 44.180516 18.238281 44.029297 C 18.345515 43.999053 18.45217 43.959457 18.558594 43.910156 C 18.665018 43.860856 18.77043 43.802079 18.875 43.732422 C 18.97957 43.662765 19.083875 43.581547 19.185547 43.490234 C 19.400139 43.297713 19.61156 43.099794 19.820312 42.894531 C 20.446569 42.278743 21.045759 41.60583 21.607422 40.876953 C 21.794643 40.633994 21.977544 40.384254 22.15625 40.128906 C 22.334956 39.873558 22.508212 39.611399 22.677734 39.34375 C 23.016779 38.808452 23.336467 38.24999 23.634766 37.666016 C 23.680228 37.577009 23.722647 37.484373 23.759766 37.390625 C 23.796884 37.296877 23.828751 37.201158 23.857422 37.103516 C 23.886093 37.005873 23.911522 36.907333 23.931641 36.806641 C 23.951759 36.705948 23.967054 36.602896 23.978516 36.5 C 24.00213 36.333885 24.004113 36.167178 23.994141 36 L 12.603516 36 z M 9.9296875 44.169922 C 9.652932 44.157155 9.3969099 44.190845 9.1757812 44.269531 C 9.0099348 44.328546 8.8648231 44.413678 8.7441406 44.519531 C 8.7039131 44.554816 8.6651878 44.592616 8.6308594 44.632812 C 8.4827668 44.812717 8.385057 45.051263 8.3476562 45.361328 C 8.2755454 45.959125 8.1472459 46.56969 7.9609375 47.183594 C 7.8988347 47.388228 7.8304743 47.593742 7.7558594 47.798828 C 7.6066294 48.208999 7.431171 48.619384 7.2324219 49.027344 C 7.1330473 49.231324 7.0276376 49.434296 6.9160156 49.636719 C 6.8043936 49.839142 6.6862812 50.040038 6.5625 50.240234 C 6.5101892 50.324755 6.4639855 50.413619 6.421875 50.505859 C 6.3797645 50.598099 6.342274 50.694657 6.3105469 50.792969 C 6.2788197 50.89128 6.2516295 50.992967 6.2304688 51.095703 C 6.1881472 51.301175 6.1688798 51.513276 6.1699219 51.726562 C 6.1704429 51.833206 6.1758635 51.938796 6.1875 52.044922 C 6.2107729 52.257173 6.2553861 52.467671 6.3242188 52.667969 C 6.4274678 52.968416 6.5830925 53.247887 6.7929688 53.484375 C 6.8629275 53.563204 6.9393121 53.63665 7.0214844 53.705078 C 7.1858289 53.841934 7.3755472 53.957601 7.5898438 54.042969 C 7.8041403 54.128337 8.042881 54.184377 8.3085938 54.205078 C 8.8703572 54.249068 9.4441522 54.267815 10.025391 54.259766 C 10.31601 54.255741 10.607659 54.244213 10.902344 54.226562 C 11.786397 54.17361 12.688611 54.059936 13.599609 53.876953 C 13.903275 53.815959 14.208083 53.746186 14.513672 53.669922 C 14.819261 53.593658 15.124665 53.509913 15.431641 53.417969 C 15.776751 53.314494 16.105921 53.146446 16.404297 52.927734 C 16.503756 52.85483 16.60156 52.777121 16.693359 52.693359 C 16.806246 52.588976 16.910241 52.476882 17.007812 52.359375 C 17.202955 52.124361 17.365614 51.86527 17.488281 51.591797 C 17.549615 51.45506 17.602167 51.314718 17.642578 51.171875 C 17.788714 50.655902 17.776713 50.160468 17.638672 49.726562 C 17.604162 49.618086 17.561538 49.512065 17.511719 49.412109 C 17.41208 49.212198 17.283898 49.030735 17.128906 48.873047 C 17.051411 48.794203 16.966816 48.722504 16.876953 48.65625 L 11.726562 44.859375 C 11.271396 44.52378 10.800373 44.31761 10.359375 44.224609 C 10.212376 44.193609 10.068065 44.176305 9.9296875 44.169922 z M -0.24609375 48.097656 C -0.67228124 48.09209 -1.1103377 48.197139 -1.5234375 48.435547 L -7.0683594 51.636719 C -8.7368984 52.598738 -8.7368984 55.006732 -7.0683594 55.96875 L -1.5234375 59.169922 C -0.90270895 59.528252 -0.16638008 59.597631 0.5 59.380859 C 0.71075531 59.326778 0.91399544 59.254131 1.1054688 59.160156 C 2.0747091 58.684336 2.5593249 57.79267 2.4707031 56.904297 L 1.8378906 50.537109 C 1.7254387 49.40378 1.0786183 48.527908 0.5 48.222656 C 0.26148945 48.144143 0.0096187421 48.100996 -0.24609375 48.097656 z " />
  <path
     id="path13984"
     style="fill:#758c9c;fill-opacity:1;stroke:none;stroke-linecap:round;stroke-linejoin:round;stroke-opacity:1;paint-order:stroke fill markers"
     d="m 22.962188,114.11545 c -0.190616,-1.07166 -0.91301,-1.79489 -1.791681,-1.9532 l -6.295727,-1.13671 c -1.969762,-0.35599 -3.248371,0.88091 -2.856771,2.1165 0.506217,1.59631 0.715435,3.41919 0.522534,5.33165 -0.162918,1.60554 1.323221,3.61352 3.343544,2.74912 2.126743,-0.90859 4.212747,-2.27135 6.086798,-4.06573 0.793751,-0.76006 1.184107,-1.95704 0.991303,-3.04163 z m -11.089971,13.86112 c 0.612401,-0.87217 0.61275,-1.88564 0.112281,-2.62552 L 8.3992139,120.0523 c -1.1257868,-1.6644 -2.8400862,-1.74098 -3.4035444,-0.62214 -0.7328625,1.4552 -1.8309131,2.86431 -3.2715644,4.056 -1.2112268,1.001 -1.59949592,3.46743 0.3673659,4.31316 2.0743337,0.89292 4.4492875,1.44659 6.9877293,1.55583 1.0737637,0.0459 2.1745487,-0.49722 2.7930167,-1.37858 z m -16.8953789,3.19286 c 0.773759,-0.44679 1.250288,-1.27253 1.25,-2.16602 v -6.40234 c 3.99e-4,-1.92473 -2.082967,-3.12809 -3.75,-2.16602 l -5.5449221,3.20118 c -1.668539,0.96201 -1.668539,3.37001 0,4.33203 l 5.5449221,3.20117 c 0.773517,0.44653 1.726483,0.44653 2.5,0 z M 22.962188,114.11545 c -0.190616,-1.07166 -0.91301,-1.79489 -1.791681,-1.9532 l -6.295727,-1.13671 c -1.969762,-0.35599 -3.248371,0.88091 -2.856771,2.1165 0.506217,1.59631 0.715435,3.41919 0.522534,5.33165 -0.162918,1.60554 1.323222,3.61352 3.343544,2.74912 2.126743,-0.90859 4.212747,-2.27135 6.086798,-4.06573 0.793752,-0.76006 1.184107,-1.95704 0.991303,-3.04163 z m -11.089971,13.86112 c 0.612401,-0.87217 0.61275,-1.88564 0.112281,-2.62552 L 8.3992139,120.0523 c -1.1257868,-1.6644 -2.8400862,-1.74098 -3.4035444,-0.62214 -0.7328625,1.4552 -1.8309131,2.86431 -3.2715644,4.056 -1.21122679,1.001 -1.59949592,3.46743 0.3673659,4.31316 2.0743337,0.89292 4.4492875,1.44659 6.9877293,1.55583 1.0737627,0.0459 2.1745487,-0.49722 2.7930167,-1.37858 z"
     sodipodi:nodetypes="csc"
     inkscape:path-effect="#path-effect13988"
     inkscape:original-d="m 18.5,77.948398 c 0,0 0,5.038136 0,30.552042 0,4.77389 -1.896423,9.35226 -5.272078,12.72792 C 9.852267,124.60401 5.273897,126.50044 0.5,126.50044 h -26.044232" />
  <path
     id="path13990"
     style="fill:#758c9c;fill-opacity:1;stroke:none;stroke-linecap:round;stroke-linejoin:round;stroke-opacity:1;paint-order:stroke fill markers"
     d="m 23.592104,74.311009 c -0.363727,-1.03298 -1.196932,-1.629637 -2.090278,-1.636978 l -6.401288,-0.05503 c -2.002404,-0.01754 -3.043881,1.387871 -2.459223,2.530714 0.758969,1.482958 1.252897,3.256296 1.376662,5.183005 0.103253,1.622569 1.910357,3.336606 3.75411,2.157686 1.944898,-1.242135 3.781345,-2.915923 5.33813,-4.998822 0.65919,-0.882013 0.850049,-2.134666 0.481887,-3.18058 z m -8.641257,15.51701 c 0.465323,-0.964896 0.298942,-1.966794 -0.319425,-2.611944 L 10.201806,82.595942 C 8.8114464,81.14532 7.1380901,81.34237 6.7702168,82.527742 c -0.4803649,1.547815 -1.3484575,3.117283 -2.5816905,4.53706 -1.0405727,1.196903 -0.9928005,3.684721 1.0791706,4.193185 2.1896327,0.538255 4.6160484,0.705308 7.1421151,0.395972 1.068207,-0.131124 2.070999,-0.850539 2.541035,-1.82594 z m -16.9742421,5.34141 c 0.773759,-0.44679 1.25028798,-1.272525 1.24999998,-2.166015 V 86.60107 c 3.99e-4,-1.924731 -2.08296698,-3.128092 -3.74999998,-2.166015 -1.8483074,1.067057 -3.6966147,2.134114 -5.5449219,3.201171 -1.668539,0.962019 -1.668539,3.370014 0,4.332032 1.8483072,1.067057 3.6966145,2.134114 5.5449219,3.201171 0.773517,0.44653 1.726483,0.44653 2.5,0 z M 23.592104,74.311009 c -0.363727,-1.03298 -1.196932,-1.629637 -2.090278,-1.636978 l -6.401288,-0.05503 c -2.002404,-0.01754 -3.043881,1.387871 -2.459223,2.530714 0.758969,1.482958 1.252897,3.256296 1.376662,5.183005 0.103253,1.622569 1.910358,3.336606 3.75411,2.157686 1.944898,-1.242135 3.781345,-2.915923 5.33813,-4.998822 0.65919,-0.882014 0.85005,-2.134666 0.481887,-3.18058 z m -8.641257,15.51701 c 0.465323,-0.964896 0.298942,-1.966793 -0.319425,-2.611944 L 10.201806,82.595942 C 8.8114464,81.14532 7.1380901,81.34237 6.7702168,82.527742 c -0.4803649,1.547815 -1.3484575,3.117283 -2.5816905,4.53706 -1.0405727,1.196903 -0.9928003,3.684722 1.0791706,4.193185 2.1896327,0.538255 4.6160484,0.705308 7.1421151,0.395972 1.068207,-0.131125 2.070999,-0.850539 2.541035,-1.82594 z"
     sodipodi:nodetypes="csc"
     inkscape:path-effect="#path-effect13994"
     inkscape:original-d="m 18.5,41.948398 c 0,0 0,5.038136 0,30.552042 0,4.77389 -1.896423,9.35226 -5.272078,12.72792 C 9.852267,88.60401 5.273897,90.50044 0.5,90.50044 h -26.044232" />
  <path
     id="path13996"
     style="fill:#758c9c;fill-opacity:1;stroke:none;stroke-linecap:round;stroke-linejoin:round;stroke-opacity:1;paint-order:stroke fill markers"
     d="m 21.723496,153.74712 c -0.0143,-1.08611 -0.609994,-1.91524 -1.451404,-2.21518 l -6.028353,-2.15148 c -1.890554,-0.67509 -3.349952,0.3548 -3.160369,1.63017 0.187953,1.26296 0.183595,2.62108 -0.06006,4.01312 -0.07334,0.43025 -0.17088,0.86441 -0.292316,1.30026 -0.434287,1.55511 0.683023,3.7867 2.822575,3.28222 0.530405,-0.12477 1.063883,-0.2755 1.598648,-0.45358 1.7322,-0.58313 3.456608,-1.44183 5.096692,-2.56604 0.908829,-0.62299 1.488945,-1.74064 1.474588,-2.83949 z M 8.4970592,165.58539 c 0.7445937,-0.76005 0.9082676,-1.75923 0.5350588,-2.57126 L 6.3582408,157.19848 C 5.5164709,155.36685 3.8278851,155.02936 3.1001667,156.03783 2.4109701,156.99292 1.5413715,157.88806 0.5,158.65782 l -1.5220619,0.87841 c -1.668534,0.96201 -1.668534,3.37001 0,4.33203 L 0.5,164.74666 c 1.5171069,0.77163 3.20629,1.36628 5.0151614,1.74377 1.0549057,0.21982 2.2300701,-0.13716 2.9818978,-0.90504 z m -16.5202231,1.58404 c 0.773759,-0.44679 1.250288,-1.27253 1.25,-2.16602 v -6.40234 c 3.99e-4,-1.92473 -2.082967,-3.12809 -3.7500001,-2.16602 l -5.544922,3.20118 c -1.668539,0.96201 -1.668539,3.37001 0,4.33203 l 5.544922,3.20117 c 0.7735171,0.44653 1.7264831,0.44653 2.5000001,0 z M 21.723496,153.74712 c -0.0143,-1.08611 -0.609994,-1.91524 -1.451404,-2.21518 l -6.028353,-2.15148 c -1.890554,-0.67509 -3.349952,0.3548 -3.160369,1.63017 0.187953,1.26296 0.183595,2.62108 -0.06006,4.01312 -0.07334,0.43025 -0.17088,0.86441 -0.292316,1.30026 -0.434287,1.55511 0.683024,3.78671 2.822575,3.28222 0.530405,-0.12477 1.063883,-0.2755 1.598648,-0.45358 1.7322,-0.58313 3.456608,-1.44183 5.096692,-2.56604 0.90883,-0.62299 1.488945,-1.74064 1.474588,-2.83949 z M 8.4970592,165.58539 c 0.7445937,-0.76005 0.9082676,-1.75923 0.5350588,-2.57126 L 6.3582408,157.19848 C 5.5164709,155.36685 3.8278851,155.02936 3.1001667,156.03783 2.4109701,156.99292 1.5413715,157.88806 0.5,158.65782 l -1.5220619,0.87841 c -1.668534,0.96201 -1.668534,3.37001 0,4.33203 L 0.5,164.74666 c 1.5171069,0.77163 3.20629,1.36628 5.0151614,1.74377 1.0549057,0.21982 2.2300701,-0.13716 2.9818978,-0.90504 z"
     sodipodi:nodetypes="csc"
     inkscape:path-effect="#path-effect14000"
     inkscape:original-d="m 18.5,113.9484 c 0,0 0,5.03813 0,30.55204 0,4.77389 -1.896423,9.35226 -5.272078,12.72792 C 9.852267,160.60401 5.273897,162.50044 0.5,162.50044 h -26.044232" />
  <path
     id="path14002"
     style="fill:#758c9c;fill-opacity:1;stroke:none;stroke-linecap:round;stroke-linejoin:round;stroke-opacity:1;paint-order:stroke fill markers"
     d="M 15.591797 180 L 15.880859 180.5 C 15.966392 180.62506 16.04877 180.75329 16.130859 180.88281 C 16.238582 181.05301 16.371224 181.21233 16.521484 181.35742 C 16.671745 181.50251 16.839936 181.63363 17.021484 181.74609 C 17.112259 181.80233 17.206247 181.85372 17.302734 181.90039 C 17.399222 181.94706 17.498815 181.98923 17.599609 182.02539 C 17.700403 182.06155 17.802555 182.09051 17.90625 182.11523 C 18.424723 182.23884 18.971501 182.21341 19.457031 181.98047 C 19.554137 181.93388 19.648665 181.88008 19.740234 181.81641 C 20.014944 181.6254 20.261363 181.35578 20.460938 180.99414 C 20.550479 180.83209 20.637175 180.66668 20.722656 180.5 L 21.011719 180 L 15.591797 180 z M 12.824219 184.51758 C 12.61403 184.51135 12.415406 184.52703 12.230469 184.56055 C 11.953063 184.61083 11.706374 184.70209 11.498047 184.82617 C 11.428604 184.86753 11.363412 184.91277 11.302734 184.96094 C 11.242057 185.00911 11.186133 185.06095 11.134766 185.11523 C 11.083399 185.16952 11.037606 185.22545 10.996094 185.28516 C 10.954582 185.34486 10.917831 185.40822 10.886719 185.47266 C 10.855607 185.53709 10.830714 185.60341 10.810547 185.67188 C 10.750046 185.87726 10.739296 186.09896 10.787109 186.32812 C 10.823701 186.50351 10.855922 186.68175 10.884766 186.86133 C 11.00014 187.57963 11.053045 188.32896 11.033203 189.09961 C 11.028243 189.29227 11.01802 189.48662 11.003906 189.68164 C 10.975678 190.07167 10.92981 190.46603 10.863281 190.86328 C 10.828279 191.07861 10.78751 191.29459 10.740234 191.51172 C 10.656459 191.89566 10.667554 192.32024 10.765625 192.73242 C 10.814661 192.93851 10.885968 193.14255 10.976562 193.33594 C 11.067157 193.52932 11.17709 193.71141 11.306641 193.87891 C 11.500967 194.13015 11.737057 194.34602 12.011719 194.50195 C 12.469488 194.76184 13.033243 194.85906 13.681641 194.68945 C 13.94181 194.62151 14.203625 194.54617 14.464844 194.46484 C 14.947924 194.31329 15.430804 194.13987 15.912109 193.94336 C 16.152762 193.8451 16.39329 193.74027 16.632812 193.63086 C 17.111857 193.41204 17.586819 193.17126 18.058594 192.9082 C 18.294481 192.77668 18.530288 192.63859 18.763672 192.49609 C 18.997055 192.3536 19.228563 192.20614 19.458984 192.05273 C 19.689406 191.89933 19.917529 191.74043 20.144531 191.57617 C 20.471468 191.33946 20.749786 191.03532 20.966797 190.69141 C 21.039134 190.57677 21.105839 190.45848 21.164062 190.33594 C 21.222286 190.2134 21.273247 190.08743 21.316406 189.95898 C 21.402725 189.7021 21.458152 189.43449 21.478516 189.16602 C 21.488697 189.03178 21.490154 188.8978 21.482422 188.76367 C 21.474807 188.63088 21.458274 188.50282 21.433594 188.37891 C 21.408914 188.25499 21.376336 188.13552 21.335938 188.02148 C 21.25514 187.79342 21.143411 187.58687 21.007812 187.4043 C 20.872214 187.22172 20.712836 187.06271 20.533203 186.93359 C 20.35357 186.80448 20.154308 186.7044 19.941406 186.63672 L 13.841797 184.69922 C 13.721851 184.66109 13.603822 184.62928 13.488281 184.60352 C 13.2572 184.55199 13.034408 184.5238 12.824219 184.51758 z M 4.2304688 191.58398 C 3.779512 191.57554 3.3687647 191.76409 3.0917969 192.14258 C 2.4015174 193.0862 1.534532 193.96957 0.5 194.73047 L -1.0683594 195.63672 C -2.7368984 196.59874 -2.7368984 199.00673 -1.0683594 199.96875 L 0.5 200.87305 C 2.0087397 201.63556 3.6850079 202.22524 5.4785156 202.60156 C 6.5379615 202.82383 7.7204204 202.46767 8.4785156 201.69922 C 9.2279014 200.93944 9.3947721 199.93941 9.0234375 199.12695 L 6.3652344 193.30469 C 5.8424433 192.15926 4.9820634 191.59805 4.2304688 191.58398 z " />
</svg>
