<?xml version="1.0" encoding="UTF-8" standalone="no"?>
<svg
   viewBox="0 0 36 216"
   version="1.1"
   id="svg28"
   sodipodi:docname="curved_conveyor.svg"
   inkscape:export-filename="D:\Programming\Java\FactoryGame\source\tile\textures\curved_conveyor.png"
   inkscape:export-xdpi="682.66669"
   inkscape:export-ydpi="682.66669"
   inkscape:version="1.1 (c68e22c387, 2021-05-23)"
   width="36"
   height="216"
   xmlns:inkscape="http://www.inkscape.org/namespaces/inkscape"
   xmlns:sodipodi="http://sodipodi.sourceforge.net/DTD/sodipodi-0.dtd"
   xmlns="http://www.w3.org/2000/svg"
   xmlns:svg="http://www.w3.org/2000/svg">
  <defs
     id="defs32">
    <inkscape:path-effect
       effect="skeletal"
       id="path-effect14012"
       is_visible="true"
       lpeversion="1"
       pattern="#path11629"
       copytype="repeated"
       prop_scale="1"
       scale_y_rel="false"
       spacing="0"
       normal_offset="0.5"
       tang_offset="24.7"
       prop_units="false"
       vertical_pattern="false"
       hide_knot="false"
       fuse_tolerance="0" />
    <inkscape:path-effect
       effect="skeletal"
       id="path-effect14006"
       is_visible="true"
       lpeversion="1"
       pattern="#path11629"
       copytype="repeated"
       prop_scale="1"
       scale_y_rel="false"
       spacing="0"
       normal_offset="0.5"
       tang_offset="21.7"
       prop_units="false"
       vertical_pattern="false"
       hide_knot="false"
       fuse_tolerance="0" />
    <inkscape:path-effect
       effect="skeletal"
       id="path-effect14000"
       is_visible="true"
       lpeversion="1"
       pattern="#path11629"
       copytype="repeated"
       prop_scale="1"
       scale_y_rel="false"
       spacing="0"
       normal_offset="0.5"
       tang_offset="36.7"
       prop_units="false"
       vertical_pattern="false"
       hide_knot="false"
       fuse_tolerance="0" />
    <inkscape:path-effect
       effect="skeletal"
       id="path-effect13994"
       is_visible="true"
       lpeversion="1"
       pattern="#path11629"
       copytype="repeated"
       prop_scale="1"
       scale_y_rel="false"
       spacing="0"
       normal_offset="0.5"
       tang_offset="30.7"
       prop_units="false"
       vertical_pattern="false"
       hide_knot="false"
       fuse_tolerance="0" />
    <inkscape:path-effect
       effect="skeletal"
       id="path-effect13988"
       is_visible="true"
       lpeversion="1"
       pattern="#path11629"
       copytype="repeated"
       prop_scale="1"
       scale_y_rel="false"
       spacing="0"
       normal_offset="0.5"
       tang_offset="33.7"
       prop_units="false"
       vertical_pattern="false"
       hide_knot="false"
       fuse_tolerance="0" />
    <inkscape:path-effect
       effect="skeletal"
       id="path-effect13982"
       is_visible="true"
       lpeversion="1"
       pattern="#path11629"
       copytype="repeated"
       prop_scale="1"
       scale_y_rel="false"
       spacing="0"
       normal_offset="0.5"
       tang_offset="27.7"
       prop_units="false"
       vertical_pattern="false"
       hide_knot="false"
       fuse_tolerance="0" />
    <inkscape:path-effect
       effect="skeletal"
       id="path-effect11579"
       is_visible="true"
       lpeversion="1"
       pattern="#path11629"
       copytype="repeated"
       prop_scale="1"
       scale_y_rel="false"
       spacing="0"
       normal_offset="0.5"
       tang_offset="24.7"
       prop_units="false"
       vertical_pattern="false"
       hide_knot="false"
       fuse_tolerance="0" />
    <inkscape:path-effect
       effect="skeletal"
       id="path-effect8912"
       is_visible="true"
       lpeversion="1"
       pattern="m -4.0234375,12.632813 a 2.50025,2.50025 0 0 0 -1.25,2.166015 v 6.402344 a 2.50025,2.50025 0 0 0 3.75,2.166015 l 5.5449219,-3.201171 a 2.50025,2.50025 0 0 0 0,-4.332032 l -5.5449219,-3.201171 a 2.50025,2.50025 0 0 0 -2.5,0 z"
       copytype="repeated"
       prop_scale="1"
       scale_y_rel="false"
       spacing="6"
       normal_offset="1"
       tang_offset="0"
       prop_units="false"
       vertical_pattern="false"
       hide_knot="false"
       fuse_tolerance="0" />
    <inkscape:path-effect
       effect="skeletal"
       id="path-effect3744"
       is_visible="true"
       lpeversion="1"
       pattern="M 0,6 H 36 V 30 H 0 Z"
       copytype="single_stretched"
       prop_scale="1"
       scale_y_rel="false"
       spacing="0"
       normal_offset="0"
       tang_offset="0"
       prop_units="false"
       vertical_pattern="false"
       hide_knot="false"
       fuse_tolerance="0" />
    <inkscape:path-effect
       effect="skeletal"
       id="path-effect1412"
       is_visible="true"
       lpeversion="1"
       pattern="m -57.920313,6 h 36 v 24 h -36 z"
       copytype="single_stretched"
       prop_scale="1"
       scale_y_rel="false"
       spacing="0"
       normal_offset="0"
       tang_offset="0"
       prop_units="false"
       vertical_pattern="false"
       hide_knot="false"
       fuse_tolerance="0" />
    <inkscape:path-effect
       effect="skeletal"
       id="path-effect1337"
       is_visible="true"
       lpeversion="1"
       pattern="M 0,0 H 1"
       copytype="single_stretched"
       prop_scale="1"
       scale_y_rel="false"
       spacing="0"
       normal_offset="0"
       tang_offset="0"
       prop_units="false"
       vertical_pattern="false"
       hide_knot="false"
       fuse_tolerance="0" />
  </defs>
  <sodipodi:namedview
     id="namedview30"
     pagecolor="#505050"
     bordercolor="#ffffff"
     borderopacity="1"
     inkscape:pageshadow="0"
     inkscape:pageopacity="0"
     inkscape:pagecheckerboard="1"
     showgrid="false"
     inkscape:zoom="2.8284271"
     inkscape:cx="-0.1767767"
     inkscape:cy="85.383144"
     inkscape:window-width="1920"
     inkscape:window-height="1001"
     inkscape:window-x="-9"
     inkscape:window-y="-9"
     inkscape:window-maximized="1"
     inkscape:current-layer="svg28" />
  <path
     id="path2147"
     style="fill:#99aab5;stroke:none;stroke-width:1;stroke-linecap:round;stroke-linejoin:round;paint-order:stroke fill markers;stroke-opacity:1;stroke-miterlimit:4;stroke-dasharray:none;fill-opacity:1"
     d="M 5.6875 0 C 5.1549022 0.99483112 4.2700388 2.0527322 3.1835938 3.1835938 C 2.0527328 4.270038 0.99483076 5.1549024 0 5.6875 L 0 30 C 5.2096262 29.695302 9.1378543 28.375462 11.677734 26.658203 C 14.984169 24.771319 17.80625 22.547475 20.154297 20.154297 C 22.547476 17.80625 24.771319 14.98417 26.658203 11.677734 C 28.375462 9.1378538 29.695302 5.2096262 30 0 L 5.6875 0 z " />
  <path
     id="path5483"
     style="fill:#99aab5;fill-opacity:1;stroke:none;stroke-width:1;stroke-linecap:round;stroke-linejoin:round;stroke-miterlimit:4;stroke-dasharray:none;stroke-opacity:1;paint-order:stroke fill markers"
     d="M 5.6875,36 C 5.1549022,36.994831 4.2700388,38.052732 3.1835938,39.183594 2.0527328,40.270038 0.99483076,41.154902 0,41.6875 V 66 c 5.2096262,-0.304698 9.1378543,-1.624538 11.677734,-3.341797 3.306435,-1.886884 6.128516,-4.110728 8.476563,-6.503906 2.393179,-2.348047 4.617022,-5.170127 6.503906,-8.476563 C 28.375462,45.137854 29.695302,41.209626 30,36 Z" />
  <path
     id="path5485"
     style="fill:#99aab5;fill-opacity:1;stroke:none;stroke-width:1;stroke-linecap:round;stroke-linejoin:round;stroke-miterlimit:4;stroke-dasharray:none;stroke-opacity:1;paint-order:stroke fill markers"
     d="M 5.6875,72 C 5.1549022,72.994831 4.2700388,74.052732 3.1835938,75.183594 2.0527328,76.270038 0.99483076,77.154902 0,77.6875 V 102 c 5.2096262,-0.3047 9.1378543,-1.62454 11.677734,-3.341797 3.306435,-1.886884 6.128516,-4.110728 8.476563,-6.503906 2.393179,-2.348047 4.617022,-5.170127 6.503906,-8.476563 C 28.375462,81.137854 29.695302,77.209626 30,72 Z" />
  <path
     id="path5487"
     style="fill:#99aab5;fill-opacity:1;stroke:none;stroke-width:1;stroke-linecap:round;stroke-linejoin:round;stroke-miterlimit:4;stroke-dasharray:none;stroke-opacity:1;paint-order:stroke fill markers"
     d="m 5.6875,108 c -0.5325978,0.99483 -1.4174612,2.05273 -2.5039062,3.18359 C 2.0527328,112.27004 0.99483076,113.1549 0,113.6875 V 138 c 5.2096262,-0.3047 9.1378543,-1.62454 11.677734,-3.3418 3.306435,-1.88688 6.128516,-4.11072 8.476563,-6.5039 2.393179,-2.34805 4.617022,-5.17013 6.503906,-8.47657 C 28.375462,117.13785 29.695302,113.20963 30,108 Z" />
  <path
     id="path5489"
     style="fill:#99aab5;fill-opacity:1;stroke:none;stroke-width:1;stroke-linecap:round;stroke-linejoin:round;stroke-miterlimit:4;stroke-dasharray:none;stroke-opacity:1;paint-order:stroke fill markers"
     d="m 5.6875,144 c -0.5325978,0.99483 -1.4174612,2.05273 -2.5039062,3.18359 C 2.0527328,148.27004 0.99483076,149.1549 0,149.6875 V 174 c 5.2096262,-0.3047 9.1378543,-1.62454 11.677734,-3.3418 3.306435,-1.88688 6.128516,-4.11072 8.476563,-6.5039 2.393179,-2.34805 4.617022,-5.17013 6.503906,-8.47657 C 28.375462,153.13785 29.695302,149.20963 30,144 Z" />
  <path
     id="path5491"
     style="fill:#99aab5;fill-opacity:1;stroke:none;stroke-width:1;stroke-linecap:round;stroke-linejoin:round;stroke-miterlimit:4;stroke-dasharray:none;stroke-opacity:1;paint-order:stroke fill markers"
     d="m 5.6875,180 c -0.5325978,0.99483 -1.4174612,2.05273 -2.5039062,3.18359 C 2.0527328,184.27004 0.99483076,185.1549 0,185.6875 V 210 c 5.2096262,-0.3047 9.1378543,-1.62454 11.677734,-3.3418 3.306435,-1.88688 6.128516,-4.11072 8.476563,-6.5039 2.393179,-2.34805 4.617022,-5.17013 6.503906,-8.47657 C 28.375462,189.13785 29.695302,185.20963 30,180 Z" />
  <path
     id="path10835"
     style="fill:#758c9c;stroke:none;stroke-linecap:round;stroke-linejoin:round;stroke-opacity:1;paint-order:stroke fill markers;fill-opacity:1"
     d="m 23.618972,-4.102436 c -0.44679,-0.773759 -1.272525,-1.250288 -2.166015,-1.25 l -6.402344,-1e-7 C 13.125882,-5.352835 11.922521,-3.269469 12.884598,-1.602436 L 14.098367,0.5 c 0.666872,0.8533444 1.241137,1.8478902 1.69764,2.9508527 0.618359,1.4965654 2.880524,2.544849 4.246959,0.8386475 C 20.937759,3.173436 21.738827,1.908471 22.405202,0.5 l 1.21377,-2.102436 c 0.44653,-0.773516 0.44653,-1.726483 0,-2.5 z m -5.895785,19.255818 c 0.29053,-1.034319 -0.05038,-1.988988 -0.770838,-2.516902 L 11.791627,8.8561399 C 10.559478,7.9532589 9.2082814,7.9928343 8.6693572,8.669357 8.5327107,8.8472784 8.4422853,9.0799546 8.4069,9.3761795 8.2160041,10.974179 7.6141425,12.662045 6.6239045,14.268433 c -0.8368229,1.356172 -0.3738552,3.801103 1.7569892,3.958731 2.2521193,0.167494 4.6757603,-0.06946 7.1337913,-0.816045 0.439473,-0.133621 0.854478,-0.371198 1.210707,-0.685726 0,0 1e-6,0 1e-6,0 0.476215,-0.426159 0.83114,-0.978035 0.997794,-1.572011 z m -19.7458891,7.965607 c 0.773759,-0.44679 1.25028799,-1.272525 1.24999999,-2.166015 V 14.55063 c 3.99e-4,-1.924731 -2.08296699,-3.128092 -3.74999999,-2.166015 l -5.5449219,3.201171 c -1.668539,0.962019 -1.668539,3.370014 0,4.332032 l 5.5449219,3.201171 c 0.773517,0.44653 1.726483,0.44653 2.5,0 z M 23.618972,-4.102436 c -0.44679,-0.773759 -1.272525,-1.250288 -2.166015,-1.25 l -6.402344,-1e-7 C 13.125882,-5.352835 11.922521,-3.269469 12.884598,-1.602436 L 14.098367,0.5 c 0.666872,0.8533444 1.241137,1.8478902 1.69764,2.9508527 0.618359,1.4965654 2.880525,2.5448493 4.246959,0.8386475 C 20.937759,3.173436 21.738827,1.908471 22.405202,0.5 l 1.21377,-2.102436 c 0.44653,-0.773517 0.44653,-1.726483 0,-2.5 z m -5.895785,19.255818 c 0.29053,-1.034319 -0.05038,-1.988988 -0.770838,-2.516902 L 11.791627,8.8561399 C 10.559478,7.9532589 9.2082814,7.9928343 8.6693572,8.669357 8.5327107,8.8472784 8.4422853,9.0799546 8.4069,9.3761795 8.2160041,10.974179 7.6141425,12.662045 6.6239045,14.268433 c -0.8368229,1.356172 -0.3738548,3.801104 1.7569892,3.958731 2.2521193,0.167494 4.6757603,-0.06946 7.1337913,-0.816045 0.439472,-0.133621 0.854478,-0.371198 1.210707,-0.685726 0,0 0,-1e-6 0,-1e-6 0.476216,-0.426158 0.831141,-0.978034 0.997795,-1.57201 z"
     sodipodi:nodetypes="csc"
     inkscape:path-effect="#path-effect11579"
     inkscape:original-d="m 18.5,-30.052038 c 0,0 0,5.038136 0,30.552038 0,4.7738968 -1.896423,9.352267 -5.272078,12.727922 C 9.852267,16.603577 5.273897,18.5 0.5,18.5 h -26.044232" />
  <path
     id="path11629"
     style="color:#000000;fill:#758c9c;stroke-linecap:round;stroke-linejoin:round;-inkscape-stroke:none;paint-order:stroke fill markers"
     d="m 55.25,5.2638302 c -0.773759,0.44679 -1.250288,1.272525 -1.25,2.166015 v 6.4023438 c -3.99e-4,1.924731 2.082967,3.128092 3.75,2.166015 l 5.544922,-3.201171 c 1.668534,-0.962019 1.668534,-3.3700126 0,-4.3320318 L 57.75,5.2638302 c -0.773516,-0.44653 -1.726483,-0.44653 -2.5,0 z m 17.301516,0.4999829 c -0.774511,0.446293 -1.251839,1.272122 -1.251953,2.166015 v 6.4023439 c -3.99e-4,1.924731 2.082966,3.128091 3.749999,2.166015 l 5.546875,-3.201171 c 1.668534,-0.962019 1.668534,-3.3700127 0,-4.3320319 l -5.546875,-3.201171 c -0.77302,-0.445779 -1.725026,-0.445779 -2.498046,0 z m 18.098023,0 c -0.773759,0.4467897 -1.250288,1.2725249 -1.25,2.166015 v 6.4023439 c -3.99e-4,1.924731 2.082967,3.128092 3.75,2.166015 l 5.544922,-3.201171 c 1.668539,-0.962019 1.668539,-3.3700137 0,-4.3320319 l -5.544922,-3.201171 c -0.773517,-0.4465304 -1.726483,-0.4465304 -2.5,0 z M 55.25,5.2638302 C 54.476241,5.7106199 53.999712,6.5363551 54,7.4298452 v 6.4023438 c -3.99e-4,1.924731 2.082967,3.128092 3.75,2.166015 l 5.544922,-3.201171 c 1.668534,-0.962019 1.668534,-3.3700136 0,-4.3320318 L 57.75,5.2638302 c -0.773517,-0.4465304 -1.726483,-0.4465304 -2.5,0 z m 17.301516,0.4999829 c -0.774511,0.446293 -1.251839,1.2721219 -1.251953,2.166015 v 6.4023439 c -3.99e-4,1.924731 2.082966,3.128091 3.749999,2.166015 l 5.546875,-3.201171 c 1.668534,-0.962019 1.668534,-3.3700137 0,-4.3320319 l -5.546875,-3.201171 c -0.77302,-0.4457788 -1.725026,-0.4457788 -2.498046,0 z"
     sodipodi:nodetypes="cccccccccccccccccccccccccccccccccccccccc" />
  <path
     id="path13978"
     style="fill:#758c9c;fill-opacity:1;stroke:none;stroke-linecap:round;stroke-linejoin:round;stroke-opacity:1;paint-order:stroke fill markers"
     d="M 23.618943,34.898251 C 23.172155,34.1245 22.346424,33.647976 21.452939,33.648264 l -6.402306,0 c -1.588724,-3.29e-4 -2.685956,1.419072 -2.479561,2.852172 0.04519,0.19831 0.142959,0.400538 0.300974,0.606133 1.004444,1.306447 1.776524,2.967374 2.211118,4.845774 0.365496,1.584067 2.430416,2.9772 4.055253,1.520865 1.714982,-1.535483 3.254519,-3.479802 4.447398,-5.810414 0.181801,-0.355222 0.297286,-0.751683 0.34312,-1.162358 0,0 0,0 0,0 0.07749,-0.545073 -0.02584,-1.109962 -0.309992,-1.602185 z m -8.585327,18.925931 c 0.464308,-0.967746 0.295976,-1.970186 -0.32437,-2.613479 L 10.265462,46.603877 C 8.8710593,45.157851 7.193818,45.363082 6.8261168,46.551955 6.3461837,48.103674 5.4778289,49.677511 4.2436413,51.102121 3.2023776,52.302967 3.25651,54.790815 5.3348542,55.292235 c 2.1960306,0.53073 4.6274295,0.688979 7.1570648,0.36956 1.069729,-0.135391 2.072675,-0.859305 2.541697,-1.837613 z m -20.0565514,5.295243 c 0.773759,-0.44679 1.250288,-1.272525 1.25,-2.166015 v -6.402344 c 3.99e-4,-1.924731 -2.082967,-3.128092 -3.75,-2.166015 l -5.5449216,3.201171 c -1.668539,0.962019 -1.668539,3.370014 0,4.332032 l 5.5449216,3.201171 c 0.773517,0.44653 1.726483,0.44653 2.5,0 z M 23.618943,34.898251 C 23.172155,34.1245 22.346424,33.647976 21.452939,33.648264 l -6.402306,0 c -1.588724,-3.29e-4 -2.685956,1.419072 -2.479561,2.852172 0.04519,0.19831 0.142959,0.400538 0.300974,0.606133 1.004444,1.306447 1.776524,2.967374 2.211118,4.845774 0.365496,1.584067 2.430416,2.977201 4.055253,1.520865 1.714982,-1.535483 3.254519,-3.479802 4.447398,-5.810414 0.181801,-0.355222 0.297287,-0.751683 0.34312,-1.162358 0,0 0,0 0,0 0.07749,-0.545073 -0.02584,-1.109962 -0.309992,-1.602185 z m -8.585327,18.925931 c 0.464308,-0.967746 0.295976,-1.970186 -0.32437,-2.613479 l -4.443784,-4.606826 c -1.3944027,-1.446026 -3.071644,-1.240795 -3.4393452,-0.05192 -0.4799331,1.551719 -1.3482879,3.125556 -2.5824755,4.550166 -1.0412637,1.200846 -0.9871311,3.688695 1.0912129,4.190114 2.1960306,0.53073 4.6274295,0.688979 7.1570648,0.36956 1.069729,-0.135391 2.072675,-0.859305 2.541697,-1.837613 z"
     sodipodi:nodetypes="csc"
     inkscape:path-effect="#path-effect13982"
     inkscape:original-d="m 18.5,5.9483981 c 0,0 0,5.0381359 0,30.5520379 0,4.773897 -1.896423,9.352267 -5.272078,12.727922 C 9.852267,52.604013 5.273897,54.500436 0.5,54.500436 h -26.044232" />
  <path
     id="path13984"
     style="fill:#758c9c;fill-opacity:1;stroke:none;stroke-linecap:round;stroke-linejoin:round;stroke-opacity:1;paint-order:stroke fill markers"
     d="m 22.913737,114.10321 c -0.191127,-1.06961 -0.913726,-1.79153 -1.792397,-1.94983 l -6.295727,-1.13672 c -1.970352,-0.35609 -3.246807,0.87532 -2.853964,2.10668 0.508087,1.59166 0.719895,3.41021 0.530303,5.31862 -0.16016,1.60236 1.326731,3.60952 3.343544,2.74912 2.123435,-0.90454 4.206848,-2.26296 6.07903,-4.05271 0.792944,-0.75807 1.182529,-1.95267 0.989211,-3.03516 z M 8.5760876,129.60875 c 0.7443691,-0.76293 0.9063781,-1.76315 0.5308638,-2.57411 l -2.6903912,-5.808 C 5.5699206,119.39813 3.8746833,119.06632 3.1453116,120.07857 2.4460605,121.04902 1.5612997,121.95821 0.5,122.7381 l -1.46959888,0.84813 c -1.66853402,0.96202 -1.66853402,3.37001 0,4.33203 L 0.5,128.76638 c 1.5384433,0.78166 3.2534145,1.38155 5.0904502,1.75789 1.0575581,0.21633 2.2340205,-0.14472 2.9856374,-0.91552 z m -19.5987886,1.51068 c 0.773759,-0.44679 1.2502881,-1.27253 1.2500001,-2.16602 v -6.40234 c 3.99e-4,-1.92473 -2.0829671,-3.12809 -3.7500001,-2.16601 -1.848307,1.06705 -3.696615,2.13411 -5.544922,3.20117 -1.668539,0.96202 -1.668539,3.37001 0,4.33203 1.848307,1.06705 3.696615,2.13411 5.544922,3.20117 0.773517,0.44653 1.726483,0.44653 2.5,0 z m 33.936438,-17.01622 c -0.191127,-1.06961 -0.913726,-1.79153 -1.792397,-1.94983 l -6.295727,-1.13672 c -1.970352,-0.35609 -3.246807,0.87532 -2.853964,2.10668 0.508087,1.59166 0.719895,3.41021 0.530303,5.31862 -0.16016,1.60236 1.326732,3.60952 3.343544,2.74912 2.123435,-0.90454 4.206848,-2.26296 6.07903,-4.05271 0.792945,-0.75807 1.182529,-1.95267 0.989211,-3.03516 z M 8.5760876,129.60875 c 0.7443691,-0.76293 0.9063782,-1.76315 0.5308638,-2.57411 l -2.6903912,-5.808 C 5.5699206,119.39813 3.8746833,119.06632 3.1453116,120.07857 2.4460605,121.04902 1.5612997,121.95821 0.5,122.7381 l -1.46959888,0.84813 c -1.66853402,0.96202 -1.66853402,3.37001 0,4.33203 L 0.5,128.76638 c 1.5384433,0.78166 3.2534145,1.38155 5.0904502,1.75789 1.057558,0.21633 2.2340204,-0.14472 2.9856374,-0.91552 z"
     sodipodi:nodetypes="csc"
     inkscape:path-effect="#path-effect13988"
     inkscape:original-d="m 18.5,77.948398 c 0,0 0,5.038136 0,30.552042 0,4.77389 -1.896423,9.35226 -5.272078,12.72792 C 9.852267,124.60401 5.273897,126.50044 0.5,126.50044 h -26.044232" />
  <path
     id="path13990"
     style="fill:#758c9c;fill-opacity:1;stroke:none;stroke-linecap:round;stroke-linejoin:round;stroke-opacity:1;paint-order:stroke fill markers"
     d="m 23.542302,74.306996 c -0.363912,-1.03079 -1.197121,-1.626053 -2.090468,-1.633395 l -6.401288,-0.05503 c -2.002999,-0.01755 -3.043188,1.381814 -2.457994,2.520236 0.760061,1.477995 1.2558,3.246667 1.382095,5.169009 0.105402,1.619148 1.913071,3.332264 3.75411,2.157686 1.942368,-1.237767 3.777004,-2.90689 5.332697,-4.984826 0.658716,-0.879897 0.849192,-2.130009 0.480848,-3.173685 z M 11.953787,91.986834 c 0.611793,-0.875022 0.610347,-1.889282 0.107745,-2.627708 L 8.4609748,84.070808 C 7.3307845,82.410263 5.6111518,82.340571 5.0469701,83.463056 4.3135766,84.922181 3.2143044,86.33568 1.7717408,87.532209 c -1.21276731,1.005016 -1.59429633,3.472414 0.3801466,4.312011 2.0820557,0.886327 4.4633219,1.432133 7.0066665,1.532236 1.0758511,0.04203 2.1773671,-0.505359 2.7952331,-1.389622 z m -19.9767211,3.132595 c 0.773759,-0.44679 1.250288,-1.272525 1.25,-2.166015 V 86.55107 c 3.99e-4,-1.924731 -2.082967,-3.128092 -3.7499999,-2.166015 l -5.544922,3.201171 c -1.668539,0.962019 -1.668539,3.370014 0,4.332032 l 5.544922,3.201171 c 0.7735169,0.44653 1.7264829,0.44653 2.4999999,0 z M 23.542302,74.306996 c -0.363912,-1.03079 -1.197121,-1.626053 -2.090468,-1.633395 l -6.401288,-0.05503 c -2.002999,-0.01755 -3.043188,1.381814 -2.457994,2.520236 0.760061,1.477995 1.2558,3.246667 1.382095,5.169009 0.105402,1.619148 1.913071,3.332264 3.75411,2.157686 1.942368,-1.237767 3.777004,-2.90689 5.332697,-4.984826 0.658717,-0.879898 0.849192,-2.130009 0.480848,-3.173685 z M 11.953787,91.986834 c 0.611793,-0.875022 0.610347,-1.889281 0.107745,-2.627708 L 8.4609748,84.070808 C 7.3307845,82.410263 5.6111518,82.340571 5.0469701,83.463056 4.3135766,84.922181 3.2143044,86.33568 1.7717408,87.532209 c -1.2127673,1.005016 -1.59429633,3.472415 0.3801466,4.312011 2.0820557,0.886327 4.4633219,1.432133 7.0066665,1.532236 1.0758501,0.04203 2.1773661,-0.505359 2.7952331,-1.389622 z"
     sodipodi:nodetypes="csc"
     inkscape:path-effect="#path-effect13994"
     inkscape:original-d="m 18.5,41.948398 c 0,0 0,5.038136 0,30.552042 0,4.77389 -1.896423,9.35226 -5.272078,12.72792 C 9.852267,88.60401 5.273897,90.50044 0.5,90.50044 h -26.044232" />
  <path
     id="path13996"
     style="fill:#758c9c;fill-opacity:1;stroke:none;stroke-linecap:round;stroke-linejoin:round;stroke-opacity:1;paint-order:stroke fill markers"
     d="m 21.67766,153.72717 c -0.01514,-1.08419 -0.611238,-1.91209 -1.452647,-2.21203 l -6.028353,-2.15149 c -1.891151,-0.6753 -3.347503,0.34968 -3.155982,1.62101 0.189978,1.25966 0.188066,2.61465 -0.05272,4.00373 -0.07244,0.42937 -0.169046,0.86269 -0.289539,1.29774 -0.431008,1.55254 0.687092,3.7834 2.822575,3.28221 0.529463,-0.12396 1.062015,-0.27385 1.595871,-0.45104 1.729334,-0.58018 3.451296,-1.43576 5.089355,-2.55666 0.907689,-0.62115 1.486647,-1.73659 1.471444,-2.83347 z m -16.701869,12.9316 c 0.8620571,-0.63143 1.184117,-1.59175 0.9450528,-2.45267 L 4.2076993,158.04015 C 3.667118,156.09326 2.0568127,155.506 1.1966408,156.36721 0.97647206,156.58765 0.74420332,156.80125 0.5,157.00676 l -4.4696009,2.57947 c -1.668534,0.96202 -1.668534,3.37001 0,4.33203 L 0.5,166.49772 c 0.44268563,0.20598 0.8973051,0.39834 1.3628537,0.57629 1.0148632,0.38759 2.2426294,0.22263 3.1129373,-0.41524 z m -18.998494,0.46066 c 0.773759,-0.44679 1.250288,-1.27253 1.25,-2.16602 v -6.40234 c 3.99e-4,-1.92473 -2.082967,-3.12809 -3.75,-2.16601 -1.848307,1.06705 -3.696615,2.13411 -5.544922,3.20117 -1.668539,0.96202 -1.668539,3.37001 0,4.33203 1.848307,1.06705 3.696615,2.13411 5.544922,3.20117 0.773517,0.44653 1.726483,0.44653 2.5,0 z M 21.67766,153.72717 c -0.01514,-1.08419 -0.611238,-1.91209 -1.452647,-2.21203 l -6.028353,-2.15149 c -1.891151,-0.6753 -3.347503,0.34968 -3.155982,1.62101 0.189978,1.25966 0.188066,2.61465 -0.05272,4.00373 -0.07244,0.42937 -0.169046,0.86269 -0.289539,1.29774 -0.431008,1.55254 0.687093,3.7834 2.822575,3.28221 0.529463,-0.12396 1.062015,-0.27385 1.595871,-0.45104 1.729334,-0.58018 3.451296,-1.43576 5.089355,-2.55666 0.90769,-0.62115 1.486648,-1.73659 1.471444,-2.83347 z m -16.701869,12.9316 c 0.8620571,-0.63143 1.184117,-1.59175 0.9450528,-2.45267 L 4.2076993,158.04015 C 3.667118,156.09326 2.0568127,155.506 1.1966408,156.36721 0.97647206,156.58765 0.74420332,156.80125 0.5,157.00676 l -4.4696009,2.57947 c -1.668534,0.96202 -1.668534,3.37001 0,4.33203 L 0.5,166.49772 c 0.44268563,0.20598 0.8973051,0.39834 1.3628537,0.57629 1.0148632,0.38759 2.2426293,0.22263 3.1129373,-0.41524 z"
     sodipodi:nodetypes="csc"
     inkscape:path-effect="#path-effect14000"
     inkscape:original-d="m 18.5,113.9484 c 0,0 0,5.03813 0,30.55204 0,4.77389 -1.896423,9.35226 -5.272078,12.72792 C 9.852267,160.60401 5.273897,162.50044 0.5,162.50044 h -26.044232" />
  <path
     id="path14002"
     style="fill:#758c9c;fill-opacity:1;stroke:none;stroke-linecap:round;stroke-linejoin:round;stroke-opacity:1;paint-order:stroke fill markers"
     d="m 23.618937,172.89832 c -0.446787,-0.77375 -1.272517,-1.25028 -2.166001,-1.24999 l -6.402299,0 c -1.924718,-4e-4 -3.128073,2.08295 -2.166004,3.74996 0.981854,1.70072 1.963708,3.40143 2.945563,5.10215 0.08554,0.12463 0.169387,0.25152 0.251492,0.38062 0.862117,1.35734 3.265061,2.03464 4.329144,0.1112 0.08953,-0.16163 0.17707,-0.32557 0.262545,-0.49182 0.981855,-1.70072 1.963709,-3.40143 2.945563,-5.10215 0.446526,-0.77351 0.446525,-1.72646 -3e-6,-2.49997 z m -3.711587,19.18987 c 0.112089,-1.06134 -0.381501,-1.94581 -1.179205,-2.34859 l -5.713826,-2.88403 c -1.802529,-0.91019 -3.3261448,-0.11347 -3.2679018,1.11319 0.026742,0.56329 0.011204,1.14091 -0.051115,1.72698 -0.1084697,1.09718 -0.3969131,2.23567 -0.8591191,3.36835 -0.6003212,1.46928 0.2462126,3.8113 2.3773258,3.61793 1.463341,-0.1322 2.972217,-0.44894 4.488921,-0.97915 0.812882,-0.28794 1.622751,-0.63412 2.42228,-1.03758 0.967532,-0.4886 1.669761,-1.50525 1.78264,-2.5771 z M 1.1046332,203.10943 c 0.9669947,-0.47577 1.4498315,-1.36747 1.3611871,-2.25584 L 1.8329717,194.4877 c -0.1124907,-1.13341 -0.7570726,-2.01085 -1.33297155,-2.31592 7e-8,0 -1.5e-7,0 -1.5e-7,0 -0.63591828,-0.2092 -1.36213586,-0.16809 -2.0229361,0.21328 l -5.544922,3.20117 c -1.668539,0.96202 -1.668539,3.37001 0,4.33203 l 5.544922,3.20117 c 0.6205856,0.35825 1.35667728,0.42907 2.0229361,0.21249 0.21048604,-0.0541 0.41342472,-0.12844 0.6046332,-0.22249 z M 23.618937,172.89832 c -0.446787,-0.77375 -1.272517,-1.25028 -2.166001,-1.24999 l -6.402299,0 c -1.924718,-4e-4 -3.128073,2.08295 -2.166004,3.74996 0.981854,1.70072 1.963708,3.40143 2.945563,5.10215 0.08554,0.12463 0.169387,0.25152 0.251492,0.38062 0.862117,1.35734 3.265062,2.03464 4.329144,0.1112 0.08953,-0.16163 0.17707,-0.32557 0.262545,-0.49182 0.981855,-1.70072 1.963709,-3.40143 2.945563,-5.10215 0.446527,-0.77351 0.446525,-1.72646 -3e-6,-2.49997 z m -3.711587,19.18987 c 0.112089,-1.06134 -0.381501,-1.94581 -1.179205,-2.34859 l -5.713826,-2.88403 c -1.802529,-0.91019 -3.3261448,-0.11347 -3.2679018,1.11319 0.026742,0.56329 0.011204,1.14091 -0.051115,1.72698 -0.1084697,1.09718 -0.3969131,2.23567 -0.8591191,3.36835 -0.6003212,1.46928 0.2462131,3.8113 2.3773258,3.61793 1.463341,-0.1322 2.972217,-0.44894 4.488921,-0.97915 0.812882,-0.28794 1.622751,-0.63412 2.42228,-1.03758 0.967532,-0.4886 1.669761,-1.50525 1.78264,-2.5771 z"
     sodipodi:nodetypes="csc"
     inkscape:path-effect="#path-effect14006"
     inkscape:original-d="m 18.5,149.9484 c 0,0 0,5.03813 0,30.55204 0,4.77389 -1.896423,9.35226 -5.272078,12.72792 C 9.852267,196.60401 5.273897,198.50044 0.5,198.50044 h -26.044232" />
  <path
     sodipodi:type="star"
     style="opacity:0.5;fill:#758c9c;fill-opacity:1;stroke:#758c9c;stroke-width:5;stroke-linecap:round;stroke-linejoin:round;stroke-miterlimit:4;stroke-dasharray:none;stroke-opacity:1;paint-order:stroke fill markers"
     id="path5166"
     inkscape:flatsided="true"
     sodipodi:sides="3"
     sodipodi:cx="-0.92455053"
     sodipodi:cy="18"
     sodipodi:r1="3.6968989"
     sodipodi:r2="1.8484495"
     sodipodi:arg1="-2.0943951"
     sodipodi:arg2="-1.0471976"
     inkscape:rounded="0"
     inkscape:randomized="0"
     inkscape:transform-center-x="0.92422469"
     d="M -2.773,14.798392 2.7723484,18 -2.773,21.201608 Z"
     transform="matrix(-1,0,0,1,-7e-6,143.6875)" />
  <path
     sodipodi:type="star"
     style="opacity:0.5;fill:#758c9c;fill-opacity:1;stroke:#758c9c;stroke-width:5;stroke-linecap:round;stroke-linejoin:round;stroke-miterlimit:4;stroke-dasharray:none;stroke-opacity:1;paint-order:stroke fill markers"
     id="path5298"
     inkscape:flatsided="true"
     sodipodi:sides="3"
     sodipodi:cx="-3.9245505"
     sodipodi:cy="198.00043"
     sodipodi:r1="3.6968989"
     sodipodi:r2="1.8484495"
     sodipodi:arg1="-2.0943951"
     sodipodi:arg2="-1.0471976"
     inkscape:rounded="0"
     inkscape:randomized="0"
     inkscape:transform-center-x="0.92422469"
     d="m -5.773,194.79882 5.5453484,3.20161 -5.5453484,3.20161 z"
     transform="matrix(-1,0,0,1,-7.4951172e-6,-72.3125)" />
</svg>
